<svg width="1091" height="403" viewBox="0 0 1091 403" fill="none" xmlns="http://www.w3.org/2000/svg">
<path d="M1.51871 530.763C-4.5725 480.009 44.0153 437.125 93.0185 429.238C142.02 421.351 191.177 437.623 239.73 448.052C288.283 458.481 342.911 461.929 383.47 432.495C435.322 394.866 447.317 315.706 500.66 280.362C542.238 252.814 596.358 261.057 638.956 281.552C663.041 293.139 683.52 312.633 706.541 326.211C810.943 387.789 817.982 513.631 906.68 532.396C1002.72 552.715 1054.83 504.432 1072.95 470.945C1096.17 428.051 1134.88 316.751 1040.02 239.405C1001.49 207.984 963.443 174.495 935.093 133.121C892.649 71.1788 892.937 -23.5206 947.213 -74.7056C984.413 -109.785 1041.55 -122.611 1066.82 -167.588C1083.8 -197.819 1081.48 -236.792 1066.88 -268.32C1052.28 -299.847 1026.85 -324.779 999.217 -345" stroke="#E3E3E3" stroke-miterlimit="10"/>
<path d="M3.71869 533.294C-0.486383 481.083 47.8365 435.973 98.3018 426.998C147.558 418.238 197.526 434.382 246.085 445.896C294.07 457.274 347.345 462.434 387.775 435.679C439.417 401.443 453.94 326.303 507.218 291.423C549.658 263.787 602.92 268.923 646.534 286.839C671.588 297.131 693.79 315.505 717.9 329.278C820.109 387.666 828.514 509.419 915.282 527.926C1008.61 547.793 1060.43 502.099 1079.27 469.148C1103.14 427.392 1140.07 320.155 1050.44 243.692C1013.49 212.168 976.84 178.036 948.947 136.917C907.755 76.4439 907.38 -14.8852 958.608 -65.6239C994.051 -100.729 1049.13 -115.031 1074.3 -159.428C1091.57 -189.779 1090.5 -228.196 1077.75 -259.959C1064.87 -292.017 1041.39 -318.367 1014.84 -340.072" stroke="#DEDEDE" stroke-miterlimit="10"/>
<path d="M5.92048 535.83C3.60154 482.163 51.6567 434.846 103.587 424.764C153.1 415.153 203.875 431.135 252.442 443.746C299.86 456.059 351.783 462.946 392.084 438.871C443.518 408.028 460.49 336.783 513.778 302.493C557.021 274.666 609.536 276.765 654.113 292.136C680.167 301.12 704.05 318.391 729.26 332.353C829.18 387.692 839.048 505.215 923.886 523.465C1014.5 542.882 1066.03 499.776 1085.59 467.359C1110.09 426.738 1145.27 323.496 1060.86 247.986C1025.47 216.336 990.238 181.585 962.803 140.72C922.862 81.7152 921.824 -6.27188 970.005 -56.5359C1003.7 -91.6857 1056.72 -107.446 1081.78 -151.261C1099.33 -181.733 1099.54 -219.62 1088.62 -251.59C1077.47 -284.207 1055.93 -311.946 1030.46 -335.137" stroke="#DEDEDE" stroke-miterlimit="10"/>
<path d="M8.1201 538.363C7.68729 483.239 55.4746 433.728 108.871 422.526C158.639 412.084 210.221 427.87 258.798 441.59C305.647 454.822 356.218 463.452 396.39 442.056C447.615 414.606 467.083 347.329 520.334 313.554C564.416 285.595 616.196 284.556 661.69 297.424C688.769 305.082 714.298 321.276 740.618 335.42C838.164 387.841 849.578 501.004 932.49 518.996C1020.4 537.961 1071.62 497.444 1091.9 465.563C1117.02 426.074 1150.48 326.749 1071.27 252.273C1037.45 220.47 1003.75 185.049 976.657 144.515C938.126 86.8654 936.26 2.29945 981.397 -47.4556C1013.34 -82.671 1064.2 -99.9302 1089.25 -143.101C1107.03 -173.739 1108.59 -211.077 1099.48 -243.232C1090.08 -276.434 1070.47 -305.534 1046.08 -330.212" stroke="#D5D0D0" stroke-miterlimit="10"/>
<path d="M10.3203 540.897C11.7736 484.318 59.2946 432.631 114.155 420.289C164.18 409.035 216.566 424.595 265.152 439.436C311.431 453.573 360.652 463.962 400.695 445.243C451.71 421.186 473.681 357.887 526.89 324.618C571.814 296.53 622.891 292.305 669.267 302.714C697.393 309.026 724.535 324.172 751.975 338.489C847.074 388.108 860.109 496.795 941.091 514.529C1026.29 533.042 1077.19 495.111 1098.21 463.768C1123.94 425.407 1155.7 329.918 1081.68 256.562C1049.41 224.575 1017.18 188.568 990.508 148.312C953.272 92.1031 950.689 10.8374 992.789 -38.3729C1022.99 -73.6764 1071.76 -92.3655 1096.73 -134.94C1114.77 -165.71 1117.65 -202.555 1110.34 -234.871C1102.7 -268.683 1085.01 -299.121 1061.69 -325.283" stroke="#C6C6C6" stroke-miterlimit="10"/>
<path d="M12.5215 543.428C15.8595 485.392 63.1156 431.544 119.439 418.049C169.723 406.001 222.911 421.303 271.509 437.28C317.221 452.308 365.12 464.551 405.002 448.427C455.849 427.871 480.287 368.448 533.45 335.679C579.218 307.467 629.62 300.006 676.847 308.003C706.038 312.945 734.764 327.076 763.335 341.557C855.922 388.484 870.641 492.584 949.695 510.061C1032.18 528.123 1082.76 492.778 1104.53 461.973C1130.85 424.736 1160.96 332.992 1092.1 260.85C1061.36 228.648 1030.6 192.09 1004.36 152.108C968.416 97.3403 965.109 19.3329 1004.18 -29.2922C1032.64 -64.7106 1079.33 -84.7998 1104.21 -126.781C1122.52 -157.685 1126.74 -194.058 1121.21 -226.511C1115.34 -260.956 1099.54 -292.707 1077.31 -320.356" stroke="#D4D4D4" stroke-miterlimit="10"/>
<path d="M14.7207 545.962C19.9448 486.469 66.9375 430.478 124.721 415.813C175.268 402.986 229.256 418.003 277.863 435.126C323.007 451.032 369.551 465.074 409.306 451.615C459.943 434.471 486.893 379.022 540.005 346.745C586.622 318.415 636.363 307.664 684.422 313.295C714.691 316.842 744.978 329.996 774.691 344.63C864.71 388.962 881.17 488.379 958.295 505.596C1038.07 523.206 1088.31 490.443 1110.84 460.18C1137.73 424.063 1166.24 335.97 1102.51 265.14C1073.31 232.688 1044.03 195.617 1018.22 155.907C983.554 102.588 979.513 27.7927 1015.58 -20.207C1042.29 -55.7658 1086.9 -77.2282 1111.68 -118.617C1130.27 -149.652 1135.86 -185.573 1132.08 -218.147C1128 -253.243 1114.08 -286.291 1092.93 -315.427" stroke="#CCCCCC" stroke-miterlimit="10"/>
<path d="M16.9219 548.495C24.0321 487.545 70.7628 429.424 130.006 413.574C180.816 399.98 235.605 414.686 284.22 432.97C328.801 449.738 373.984 465.593 413.613 454.8C464.039 441.066 493.507 389.596 546.563 357.806C594.032 329.363 643.123 315.271 692.001 318.583C723.356 320.707 755.187 332.924 786.051 347.697C873.452 389.526 891.702 484.167 966.898 501.127C1043.97 518.286 1093.86 488.097 1117.16 458.384C1144.61 423.377 1171.57 338.835 1112.93 269.427C1085.26 236.683 1057.45 199.142 1032.07 159.701C998.689 107.833 993.899 36.2017 1026.97 -11.1279C1051.94 -46.8582 1094.47 -69.661 1119.16 -110.459C1138.02 -141.623 1145 -177.104 1142.94 -209.788C1140.69 -245.547 1128.63 -279.879 1108.55 -310.5" stroke="#E3E3E3" stroke-miterlimit="10"/>
<path d="M19.123 551.029C28.1194 488.622 74.5924 428.384 135.292 411.337C186.368 396.993 241.957 411.356 290.577 430.817C334.596 448.436 378.416 466.113 417.921 457.987C468.131 447.66 500.126 400.183 553.121 368.87C601.446 340.32 649.892 322.839 699.578 323.874C732.023 324.55 765.383 335.873 797.409 350.766C882.148 390.175 902.234 479.959 975.501 496.66C1049.86 513.368 1099.39 485.75 1123.47 456.59C1151.47 422.688 1176.96 341.59 1123.34 273.717C1097.21 240.639 1070.87 202.674 1045.92 163.501C1013.82 113.087 1008.26 44.5699 1038.36 -2.04316C1061.57 -37.975 1102.05 -62.0854 1126.64 -102.295C1145.78 -133.586 1154.17 -168.639 1153.81 -201.425C1153.41 -237.857 1143.16 -273.463 1124.17 -305.569" stroke="#D2D2D2" stroke-miterlimit="10"/>
<path d="M21.3223 553.563C32.2048 489.7 78.423 427.36 140.574 409.101C191.921 394.017 248.311 408.016 296.932 428.665C340.393 447.121 382.843 466.631 422.227 461.176C472.221 454.251 506.747 410.774 559.679 379.937C608.862 351.283 656.659 330.37 707.156 329.167C740.693 328.368 775.571 338.84 808.769 353.838C890.808 390.901 912.766 475.751 984.104 492.195C1055.75 508.451 1104.91 483.399 1129.79 454.798C1158.32 421.991 1182.42 344.229 1133.76 278.008C1109.17 244.551 1084.29 206.209 1059.77 167.299C1028.94 118.346 1022.58 52.8913 1049.75 7.04093C1071.19 -29.1253 1109.62 -54.5088 1134.11 -94.1319C1153.53 -125.55 1163.36 -160.179 1164.67 -193.061C1166.15 -230.169 1157.7 -267.046 1139.79 -300.641" stroke="#D0CDCD" stroke-miterlimit="10"/>
<path d="M23.5234 556.096C36.2907 490.777 82.2584 426.348 145.859 406.864C197.478 391.049 254.669 404.662 303.288 426.51C346.195 445.791 387.27 467.142 426.533 464.361C476.307 460.835 513.371 421.37 566.237 390.999C616.283 362.248 663.423 337.861 714.735 334.457C749.36 332.158 785.748 341.827 820.128 356.907C899.436 391.696 923.298 471.542 992.709 487.728C1061.65 503.533 1110.42 481.037 1136.11 453.004C1165.16 421.282 1187.96 346.745 1144.17 282.297C1121.15 248.411 1097.7 209.744 1073.63 171.097C1044.05 123.607 1036.88 61.165 1061.15 16.1236C1080.79 -20.3098 1117.21 -46.9307 1141.59 -85.9702C1161.3 -117.514 1172.58 -151.717 1175.54 -184.7C1178.93 -222.484 1172.24 -260.632 1155.41 -295.712" stroke="#D5D5D5" stroke-miterlimit="10"/>
<path d="M25.7246 558.629C40.378 491.853 86.0982 425.348 151.144 404.626C203.04 388.092 261.035 401.293 309.645 424.355C352.002 444.452 391.698 467.652 430.841 467.549C480.394 467.419 520 431.975 572.795 402.063C623.705 373.221 670.18 345.324 722.314 339.747C758.021 335.928 795.916 344.837 831.488 359.977C908.033 392.556 933.831 467.334 1001.31 483.262C1067.54 498.615 1115.93 478.667 1142.42 451.209C1171.99 420.564 1193.6 349.144 1154.59 286.586C1133.16 252.22 1111.11 213.284 1087.49 174.893C1059.17 128.873 1051.12 69.3934 1072.55 25.2058C1090.36 -11.5276 1124.8 -39.3501 1149.07 -77.8104C1169.06 -109.476 1181.83 -143.254 1186.41 -176.34C1191.73 -214.794 1186.78 -254.219 1171.03 -290.785" stroke="#DEDEDE" stroke-miterlimit="10"/>
<path d="M27.9238 561.161C44.4633 492.929 89.9404 424.359 156.427 402.387C208.602 385.144 267.405 397.91 316 422.2C357.815 443.099 396.123 468.156 435.146 470.734C484.479 473.994 526.628 442.581 579.352 413.126C631.129 384.197 676.925 352.757 729.891 345.037C766.675 339.676 806.07 347.874 842.846 363.047C916.606 393.477 944.331 463.263 1009.91 478.795C1073.41 493.832 1121.42 476.286 1148.73 449.416C1178.81 419.835 1199.34 351.428 1165 290.876C1145.21 255.977 1124.51 216.825 1101.34 178.692C1074.27 134.144 1065.31 77.583 1083.94 34.2895C1099.89 -2.77525 1132.39 -31.7664 1156.55 -69.6477C1176.83 -101.435 1191.09 -134.781 1197.27 -167.977C1204.56 -207.093 1201.32 -247.804 1186.65 -285.855" stroke="#CDCDCD" stroke-miterlimit="10"/>
<path d="M30.125 563.694C48.5506 494.005 93.7903 423.385 161.711 400.149C214.168 382.203 273.782 394.517 322.355 420.044C363.632 441.736 400.549 468.656 439.452 473.919C488.567 480.564 533.262 453.195 585.909 424.188C638.557 395.18 683.659 360.166 737.467 350.325C775.319 343.403 816.212 350.942 854.203 366.114C925.158 394.45 954.859 459.054 1018.51 474.326C1079.3 488.911 1126.9 473.894 1155.05 447.619C1185.61 419.09 1205.22 353.603 1175.42 295.163C1157.32 259.675 1137.91 220.37 1115.19 182.486C1089.36 139.416 1079.44 85.7343 1095.33 43.3692C1109.37 5.94325 1139.98 -24.1838 1164.03 -61.4889C1184.59 -93.3952 1200.37 -126.302 1208.14 -159.618C1217.41 -199.385 1215.86 -241.393 1202.27 -280.93" stroke="#D2D2D2" stroke-miterlimit="10"/>
<path d="M32.3242 566.227C52.6345 495.082 97.6426 422.421 166.994 397.912C219.736 379.272 280.165 391.113 328.709 417.891C369.453 440.367 404.976 469.155 443.756 477.106C492.653 487.132 539.896 463.816 592.463 435.251C645.984 406.169 690.376 367.557 745.042 355.616C783.953 347.117 826.341 354.048 865.559 369.183C933.691 395.479 965.389 454.842 1027.11 469.859C1085.19 483.988 1132.37 471.489 1161.36 445.825C1192.41 418.337 1211.24 355.687 1185.83 299.453C1169.5 263.325 1151.3 223.92 1129.04 186.285C1104.45 144.698 1093.5 93.8619 1106.72 52.4536C1118.79 14.644 1147.57 -16.5951 1171.5 -53.3255C1192.36 -85.3497 1209.66 -117.805 1219 -151.255C1230.27 -191.656 1230.39 -234.976 1217.88 -275.999" stroke="#D8D8D8" stroke-miterlimit="10"/>
<path d="M34.5254 568.761C56.7218 496.158 101.501 421.469 172.28 395.673C225.311 376.347 286.561 387.694 335.067 415.736C375.287 438.986 409.41 469.649 448.066 480.293C496.749 493.697 546.537 474.441 599.026 446.315C653.424 417.166 697.087 374.93 752.625 360.907C792.585 350.817 836.464 357.197 876.921 372.254C942.219 396.557 975.925 450.629 1035.72 465.394C1091.08 479.065 1137.85 469.075 1167.68 444.031C1199.2 417.572 1217.42 357.7 1196.24 303.741C1181.79 266.927 1164.68 227.474 1142.9 190.083C1119.53 149.982 1107.5 101.973 1118.12 61.5366C1128.15 23.3269 1155.17 -9.00623 1178.98 -45.1635C1200.14 -77.3026 1218.98 -109.297 1229.87 -142.893C1243.17 -183.913 1244.94 -228.562 1233.5 -271.07" stroke="#DEDEDE" stroke-miterlimit="10"/>
<path d="M36.7266 571.294C60.8091 497.235 105.364 420.528 177.564 393.436C230.888 373.429 292.963 384.267 341.423 413.582C381.124 437.599 413.841 470.144 452.372 483.48C500.842 500.259 553.178 485.072 605.583 457.38C660.86 428.17 703.779 382.293 760.202 366.199C801.201 354.504 846.568 360.394 888.28 375.325C950.732 397.681 986.457 446.413 1044.32 460.928C1096.98 474.137 1143.31 466.647 1173.99 442.239C1205.98 416.794 1223.77 359.667 1206.66 308.033C1194.22 270.494 1178.06 231.036 1156.75 193.882C1134.61 155.272 1121.42 110.082 1129.51 70.6212C1137.43 32.0041 1162.78 -1.41273 1186.46 -36.9998C1207.92 -69.2509 1228.3 -100.774 1240.73 -134.529C1256.07 -176.152 1259.48 -222.145 1249.13 -266.14" stroke="#E3E3E3" stroke-miterlimit="10"/>
<path d="M38.9277 573.828C64.8964 498.312 109.234 419.596 182.848 391.2C236.468 370.517 299.375 380.828 347.78 411.428C386.97 436.203 418.308 470.56 456.679 486.667C504.979 506.723 559.822 495.708 612.141 468.443C668.3 439.179 710.457 389.642 767.781 371.489C809.809 358.179 856.659 363.645 899.639 378.393C959.241 398.847 997.019 442.079 1052.93 456.46C1102.9 469.106 1148.76 464.201 1180.31 440.443C1212.77 416 1230.3 361.624 1217.08 312.321C1206.81 274.032 1191.43 234.599 1170.61 197.677C1149.68 160.563 1135.27 118.198 1140.91 79.7019C1146.63 40.6848 1170.39 6.17983 1193.94 -28.8401C1215.7 -61.2016 1237.63 -92.2407 1251.6 -126.169C1268.99 -168.379 1274.02 -215.733 1264.75 -261.213" stroke="#E9E9E9" stroke-miterlimit="10"/>
<path d="M41.1289 576.362C68.9837 499.389 113.107 418.674 188.134 388.963C242.053 367.61 305.8 377.379 354.137 409.275C392.824 434.802 422.744 471.069 460.987 489.854C509.076 513.303 566.467 506.348 618.699 479.507C675.744 450.195 717.123 396.983 775.358 376.779C818.403 361.845 866.732 366.962 910.998 381.464C967.747 400.055 1007.55 437.872 1061.53 451.995C1108.79 464.188 1154.21 461.745 1186.62 438.651C1219.54 415.196 1237 363.62 1227.49 316.611C1219.59 277.573 1204.79 238.17 1184.46 201.477C1164.73 165.863 1149.04 126.347 1152.3 88.7866C1155.72 49.3888 1177.99 13.7779 1201.41 -20.6763C1223.48 -53.1453 1246.96 -83.6903 1262.47 -117.806C1281.91 -160.584 1288.56 -209.315 1280.37 -256.282" stroke="#EEEEEE" stroke-miterlimit="10"/>
<path d="M43.3281 578.894C73.0676 500.466 116.986 417.761 193.417 386.725C247.638 364.708 312.23 373.919 360.491 407.121C398.681 433.394 427.177 471.576 465.29 493.04C513.172 519.882 573.16 517.097 625.254 490.57C683.241 461.333 723.77 404.316 782.934 382.07C826.986 365.505 876.787 370.357 922.354 384.534C976.253 401.302 1018.08 433.664 1070.13 447.529C1114.68 459.271 1159.66 459.271 1192.94 436.857C1226.32 414.376 1243.88 365.702 1237.9 320.901C1232.6 281.146 1218.13 241.747 1198.31 205.275C1179.78 171.164 1162.75 134.541 1163.69 97.8702C1164.72 58.1292 1185.66 21.4211 1208.89 -12.5136C1231.33 -45.0453 1256.29 -75.1262 1273.33 -109.443C1294.84 -152.774 1303.09 -202.901 1295.98 -251.353" stroke="#F4F4F4" stroke-miterlimit="10"/>
<path d="M45.5273 581.426C77.153 501.541 120.912 416.969 198.699 384.486C253.257 361.886 318.672 370.447 366.846 404.964C404.548 431.978 431.611 472.082 469.596 496.226C517.269 526.462 579.783 527.695 631.812 501.634C690.661 472.307 730.407 411.644 790.512 387.36C835.565 369.158 886.826 373.845 933.713 387.604C984.767 402.587 1028.61 429.454 1078.73 443.062C1120.58 454.352 1165.1 456.784 1199.25 435.063C1233.09 413.544 1250.92 367.935 1248.32 325.19C1245.85 284.796 1231.46 245.33 1212.17 209.071C1194.82 176.469 1176.4 142.794 1175.09 106.952C1173.62 66.9228 1193.25 29.0012 1216.37 -4.3529C1239.09 -37.0055 1265.63 -66.5534 1284.19 -101.082C1307.78 -144.949 1317.63 -196.486 1311.6 -246.425" stroke="#F9F9F9" stroke-miterlimit="10"/>
<path d="M47.7266 583.96C81.2383 502.618 124.757 415.963 203.983 382.249C258.818 358.915 325.127 366.97 373.201 402.81C410.424 430.559 436.045 472.59 473.903 499.412C521.366 533.041 586.406 538.295 638.37 512.696C698.083 483.28 737.032 418.967 798.09 392.649C844.132 372.803 896.848 377.438 945.072 390.672C993.297 403.905 1039.14 425.244 1087.34 438.592C1126.47 449.432 1170.54 454.275 1205.57 433.265C1239.86 412.694 1258.09 370.381 1258.73 329.476C1259.37 288.57 1244.77 248.917 1226.02 212.866C1209.85 181.775 1190 151.125 1186.48 116.032C1182.45 75.7851 1200.83 36.5784 1223.84 3.80493C1246.85 -28.9686 1274.97 -57.9702 1295.06 -92.7244C1320.72 -137.112 1332.17 -190.076 1327.22 -241.5" stroke="#FCFEFF" stroke-miterlimit="10"/>
</svg>
