<svg width="749" height="338" viewBox="0 0 749 338" fill="none" xmlns="http://www.w3.org/2000/svg">
<path d="M1.51871 439.763C-4.5725 389.01 44.0153 346.125 93.0185 338.238C142.02 330.351 191.177 346.624 239.73 357.053C288.283 367.481 342.911 370.929 383.47 341.495C435.322 303.866 447.317 224.706 500.66 189.362C542.238 161.815 596.358 170.057 638.956 190.552C663.041 202.139 683.52 221.633 706.541 235.211C810.943 296.789 817.982 422.631 906.68 441.396C1002.72 461.715 1054.83 413.432 1072.95 379.945C1096.17 337.051 1134.88 225.751 1040.02 148.405C1001.49 116.984 963.443 83.4952 935.093 42.1212C892.649 -19.8211 892.937 -114.52 947.213 -165.705C984.413 -200.785 1041.55 -213.611 1066.82 -258.588C1083.8 -288.818 1081.48 -327.792 1066.88 -359.319C1052.28 -390.847 1026.85 -415.779 999.217 -436" stroke="#E3E3E3" stroke-miterlimit="10"/>
<path d="M3.71674 442.294C-0.488336 390.083 47.8346 344.973 98.2998 335.998C147.556 327.238 197.524 343.382 246.083 354.896C294.068 366.275 347.343 371.435 387.773 344.679C439.415 310.443 453.938 235.303 507.216 200.423C549.656 172.787 602.918 177.924 646.532 195.839C671.586 206.131 693.788 224.505 717.898 238.278C820.107 296.666 828.512 418.419 915.28 436.926C1008.61 456.793 1060.43 411.1 1079.27 378.148C1103.13 336.392 1140.07 229.155 1050.44 152.692C1013.49 121.168 976.838 87.0363 948.945 45.9176C907.753 -14.556 907.378 -105.885 958.606 -156.624C994.049 -191.729 1049.13 -206.031 1074.29 -250.428C1091.57 -280.779 1090.5 -319.196 1077.75 -350.959C1064.87 -383.017 1041.39 -409.366 1014.84 -431.072" stroke="#DEDEDE" stroke-miterlimit="10"/>
<path d="M5.92048 444.83C3.60154 391.163 51.6567 343.846 103.587 333.765C153.1 324.154 203.875 340.135 252.442 352.746C299.86 365.059 351.783 371.946 392.084 347.871C443.518 317.028 460.49 245.783 513.778 211.493C557.021 183.666 609.536 185.765 654.113 201.136C680.167 210.12 704.05 227.391 729.26 241.353C829.18 296.692 839.048 414.215 923.886 432.466C1014.5 451.882 1066.03 408.776 1085.59 376.359C1110.09 335.738 1145.27 232.496 1060.86 156.986C1025.47 125.336 990.238 90.5851 962.803 49.7201C922.862 -9.28471 921.824 -97.2718 970.005 -147.536C1003.7 -182.686 1056.72 -198.446 1081.78 -242.261C1099.33 -272.732 1099.54 -310.62 1088.62 -342.59C1077.47 -375.207 1055.93 -402.946 1030.46 -426.137" stroke="#DEDEDE" stroke-miterlimit="10"/>
<path d="M8.1201 447.363C7.68729 392.239 55.4746 342.728 108.871 331.526C158.639 321.084 210.221 336.87 258.798 350.59C305.647 363.822 356.218 372.453 396.39 351.056C447.615 323.606 467.083 256.33 520.334 222.555C564.416 194.595 616.196 193.556 661.69 206.424C688.769 214.082 714.298 230.276 740.618 244.42C838.164 296.841 849.578 410.004 932.49 427.996C1020.4 446.961 1071.62 406.444 1091.9 374.563C1117.02 335.074 1150.48 235.749 1071.27 161.273C1037.45 129.47 1003.75 94.0487 976.657 53.5151C938.126 -4.13444 936.26 -88.7004 981.397 -138.455C1013.34 -173.671 1064.2 -190.93 1089.25 -234.101C1107.03 -264.739 1108.59 -302.077 1099.48 -334.232C1090.08 -367.434 1070.47 -396.534 1046.08 -421.212" stroke="#D5D0D0" stroke-miterlimit="10"/>
<path d="M10.3203 449.897C11.7736 393.318 59.2946 341.632 114.155 329.289C164.18 318.035 216.566 333.595 265.152 348.436C311.431 362.573 360.652 372.962 400.695 354.243C451.71 330.186 473.681 266.887 526.89 233.618C571.814 205.53 622.891 201.306 669.267 211.714C697.393 218.026 724.535 233.172 751.975 247.489C847.074 297.108 860.109 405.795 941.091 423.529C1026.29 442.042 1077.19 404.111 1098.21 372.768C1123.94 334.407 1155.7 238.918 1081.68 165.562C1049.41 133.575 1017.18 97.5684 990.508 57.3124C953.272 1.10323 950.689 -80.1625 992.789 -129.373C1022.99 -164.676 1071.76 -183.365 1096.73 -225.939C1114.77 -256.71 1117.65 -293.555 1110.34 -325.87C1102.7 -359.683 1085.01 -390.12 1061.69 -416.283" stroke="#C6C6C6" stroke-miterlimit="10"/>
<path d="M12.5234 452.428C15.8614 394.392 63.1175 340.544 119.441 327.05C169.725 315.001 222.913 330.304 271.511 346.281C317.223 361.308 365.122 373.551 405.004 357.428C455.851 336.871 480.289 277.448 533.452 244.679C579.22 216.467 629.622 209.006 676.849 217.003C706.04 221.945 734.766 236.076 763.337 250.557C855.924 297.484 870.643 401.584 949.697 419.061C1032.19 437.123 1082.76 401.778 1104.53 370.973C1130.85 333.737 1160.96 241.993 1092.1 169.85C1061.36 137.648 1030.61 101.091 1004.36 61.1077C968.418 6.34043 965.111 -71.667 1004.18 -120.292C1032.65 -155.711 1079.33 -175.8 1104.21 -217.781C1122.52 -248.684 1126.75 -285.058 1121.21 -317.511C1115.34 -351.956 1099.55 -383.707 1077.32 -411.356" stroke="#D4D4D4" stroke-miterlimit="10"/>
<path d="M14.7188 454.962C19.9429 395.469 66.9355 339.478 124.719 324.813C175.266 311.986 229.254 327.003 277.861 344.126C323.005 360.032 369.549 374.074 409.304 360.615C459.941 343.471 486.891 288.022 540.003 255.745C586.621 227.415 636.361 216.664 684.42 222.296C714.689 225.842 744.976 238.997 774.689 253.63C864.708 297.963 881.168 397.379 958.293 414.596C1038.07 432.206 1088.31 399.443 1110.84 369.18C1137.73 333.063 1166.24 244.97 1102.51 174.141C1073.31 141.688 1044.03 104.617 1018.21 64.9075C983.552 11.5881 979.511 -63.2072 1015.57 -111.207C1042.29 -146.766 1086.89 -168.228 1111.68 -209.617C1130.27 -240.652 1135.86 -276.573 1132.07 -309.146C1128 -344.243 1114.08 -377.291 1092.93 -406.427" stroke="#CCCCCC" stroke-miterlimit="10"/>
<path d="M16.9219 457.495C24.0321 396.545 70.7628 338.424 130.006 322.574C180.816 308.981 235.605 323.686 284.22 341.97C328.801 358.739 373.984 374.593 413.613 363.8C464.039 350.066 493.507 298.596 546.563 266.807C594.032 238.363 643.123 224.271 692.001 227.583C723.356 229.707 755.187 241.925 786.051 256.697C873.452 298.526 891.702 393.167 966.898 410.127C1043.97 427.286 1093.86 397.097 1117.16 367.384C1144.61 332.377 1171.57 247.835 1112.93 178.427C1085.26 145.683 1057.45 108.142 1032.07 68.7013C998.689 16.8327 993.899 -54.7982 1026.97 -102.128C1051.94 -137.858 1094.47 -160.661 1119.16 -201.459C1138.02 -232.623 1145 -268.104 1142.94 -300.788C1140.69 -336.547 1128.63 -370.879 1108.55 -401.5" stroke="#E3E3E3" stroke-miterlimit="10"/>
<path d="M19.125 460.029C28.1214 397.622 74.5944 337.384 135.294 320.337C186.37 305.993 241.959 320.357 290.579 339.817C334.598 357.436 378.418 375.113 417.923 366.988C468.133 356.66 500.128 309.183 553.123 277.871C601.448 249.32 649.894 231.84 699.58 232.874C732.025 233.55 765.385 244.873 797.411 259.767C882.15 299.175 902.236 388.959 975.503 405.66C1049.86 422.368 1099.39 394.75 1123.47 365.59C1151.48 331.689 1176.96 250.59 1123.34 182.717C1097.21 149.639 1070.87 111.675 1045.92 72.5007C1013.82 22.0874 1008.26 -46.4299 1038.37 -93.043C1061.57 -128.975 1102.05 -153.085 1126.64 -193.295C1145.78 -224.586 1154.17 -259.639 1153.81 -292.424C1153.41 -328.856 1143.16 -364.463 1124.17 -396.569" stroke="#D2D2D2" stroke-miterlimit="10"/>
<path d="M21.3203 462.563C32.2028 398.7 78.421 336.36 140.572 318.101C191.919 303.017 248.309 317.016 296.93 337.665C340.391 356.121 382.841 375.631 422.225 370.176C472.219 363.251 506.745 319.774 559.677 288.937C608.86 260.283 656.657 239.37 707.154 238.167C740.691 237.368 775.569 247.84 808.767 262.838C890.806 299.902 912.765 384.751 984.102 401.195C1055.75 417.451 1104.91 392.399 1129.79 363.798C1158.32 330.991 1182.42 253.229 1133.75 187.009C1109.17 153.552 1084.29 115.209 1059.77 76.2994C1028.93 27.3459 1022.58 -38.1086 1049.75 -83.9589C1071.19 -120.125 1109.62 -145.509 1134.11 -185.132C1153.53 -216.55 1163.36 -251.179 1164.67 -284.061C1166.15 -321.169 1157.7 -358.046 1139.79 -391.641" stroke="#D0CDCD" stroke-miterlimit="10"/>
<path d="M23.5234 465.096C36.2907 399.777 82.2584 335.348 145.859 315.864C197.478 300.049 254.669 313.662 303.288 335.51C346.195 354.791 387.27 376.142 426.533 373.361C476.307 369.835 513.371 330.371 566.237 299.999C616.283 271.248 663.423 246.861 714.735 243.457C749.36 241.158 785.748 250.827 820.128 265.907C899.436 300.696 923.298 380.542 992.709 396.728C1061.65 412.533 1110.42 390.037 1136.11 362.004C1165.16 330.283 1187.96 255.745 1144.17 191.297C1121.15 157.412 1097.7 118.744 1073.63 80.0967C1044.05 32.6075 1036.88 -29.8349 1061.15 -74.8762C1080.79 -111.31 1117.21 -137.931 1141.59 -176.97C1161.3 -208.514 1172.58 -242.717 1175.54 -275.7C1178.93 -313.484 1172.24 -351.632 1155.41 -386.712" stroke="#D5D5D5" stroke-miterlimit="10"/>
<path d="M25.7266 467.629C40.3799 400.853 86.1001 334.348 151.146 313.626C203.042 297.092 261.037 310.293 309.647 333.355C352.004 353.452 391.7 376.652 430.842 376.549C480.396 376.419 520.002 340.975 572.797 311.063C623.707 282.221 670.181 254.324 722.316 248.748C758.023 244.928 795.918 253.837 831.49 268.977C908.035 301.557 933.833 376.334 1001.31 392.262C1067.55 407.615 1115.93 387.667 1142.42 360.209C1171.99 329.564 1193.6 258.144 1154.59 195.586C1133.16 161.22 1111.11 122.284 1087.49 83.8935C1059.17 37.873 1051.12 -21.6065 1072.55 -65.794C1090.36 -102.527 1124.8 -130.35 1149.07 -168.81C1169.06 -200.476 1181.83 -234.254 1186.41 -267.34C1191.73 -305.794 1186.78 -345.219 1171.03 -381.785" stroke="#DEDEDE" stroke-miterlimit="10"/>
<path d="M27.9219 470.161C44.4614 401.929 89.9384 333.36 156.425 311.387C208.6 294.144 267.403 306.91 315.998 331.2C357.813 352.099 396.121 377.156 435.144 379.734C484.477 382.994 526.626 351.581 579.35 322.126C631.127 293.198 676.923 261.757 729.889 254.037C766.673 248.676 806.068 256.875 842.844 272.047C916.604 302.477 944.329 372.263 1009.91 387.795C1073.4 402.832 1121.42 385.286 1148.73 358.416C1178.8 328.835 1199.34 260.429 1165 199.876C1145.21 164.977 1124.51 125.825 1101.34 87.6919C1074.27 43.1446 1065.31 -13.4168 1083.94 -56.7103C1099.89 -93.7751 1132.39 -122.766 1156.55 -160.648C1176.82 -192.434 1191.09 -225.781 1197.27 -258.977C1204.56 -298.093 1201.32 -338.804 1186.65 -376.855" stroke="#CDCDCD" stroke-miterlimit="10"/>
<path d="M30.125 472.694C48.5506 403.005 93.7903 332.385 161.711 309.149C214.168 291.203 273.782 303.518 322.355 329.044C363.632 350.737 400.549 377.656 439.452 382.919C488.567 389.564 533.262 362.195 585.909 333.188C638.557 304.18 683.659 269.166 737.467 259.325C775.319 252.403 816.212 259.942 854.203 275.114C925.158 303.45 954.859 368.054 1018.51 383.327C1079.3 397.911 1126.9 382.894 1155.05 356.619C1185.61 328.091 1205.22 262.603 1175.42 204.163C1157.32 168.676 1137.91 129.37 1115.19 91.4861C1089.36 48.4165 1079.44 -5.26555 1095.33 -47.6306C1109.37 -85.0566 1139.98 -115.184 1164.03 -152.489C1184.59 -184.395 1200.37 -217.301 1208.14 -250.618C1217.41 -290.385 1215.86 -332.393 1202.27 -371.93" stroke="#D2D2D2" stroke-miterlimit="10"/>
<path d="M32.3242 475.228C52.6345 404.082 97.6426 331.421 166.994 306.912C219.736 288.272 280.165 300.113 328.709 326.891C369.453 349.367 404.976 378.155 443.756 386.106C492.653 396.132 539.896 372.816 592.463 344.252C645.984 315.169 690.376 276.557 745.042 264.616C783.953 256.117 826.341 263.048 865.559 278.184C933.691 304.479 965.389 363.842 1027.11 378.859C1085.19 392.989 1132.37 380.489 1161.36 354.825C1192.41 327.337 1211.24 264.687 1185.83 208.453C1169.5 172.325 1151.3 132.92 1129.04 95.2852C1104.45 53.6978 1093.5 2.86205 1106.72 -38.5463C1118.79 -76.3559 1147.57 -107.595 1171.5 -144.325C1192.36 -176.35 1209.66 -208.805 1219 -242.255C1230.27 -282.656 1230.39 -325.976 1217.88 -366.999" stroke="#D8D8D8" stroke-miterlimit="10"/>
<path d="M34.5234 477.761C56.7199 405.158 101.499 330.469 172.278 304.673C225.309 285.347 286.559 296.694 335.065 324.736C375.285 347.986 409.408 378.649 448.064 389.293C496.747 402.697 546.535 383.441 599.024 355.315C653.422 326.166 697.085 283.931 752.623 269.907C792.583 259.817 836.462 266.197 876.919 281.254C942.217 305.557 975.923 359.629 1035.72 374.394C1091.08 388.065 1137.84 378.075 1167.68 353.031C1199.2 326.572 1217.42 266.7 1196.24 212.741C1181.79 175.927 1164.68 136.474 1142.9 99.0828C1119.53 58.982 1107.5 10.9733 1118.12 -29.4633C1128.15 -67.6729 1155.17 -100.006 1178.98 -136.163C1200.14 -168.303 1218.97 -200.297 1229.86 -233.893C1243.16 -274.913 1244.94 -319.562 1233.5 -362.07" stroke="#DEDEDE" stroke-miterlimit="10"/>
<path d="M36.7266 480.294C60.8091 406.235 105.364 329.528 177.564 302.437C230.888 282.429 292.963 293.267 341.423 322.583C381.124 346.599 413.841 379.144 452.372 392.48C500.842 409.259 553.178 394.072 605.583 366.381C660.86 337.17 703.779 291.293 760.202 275.199C801.201 263.505 846.568 269.394 888.28 284.325C950.732 306.682 986.457 355.413 1044.32 369.928C1096.98 383.137 1143.31 375.647 1173.99 351.239C1205.98 325.795 1223.77 268.667 1206.66 217.033C1194.22 179.494 1178.06 140.036 1156.75 102.882C1134.61 64.2724 1121.42 19.0818 1129.51 -20.3787C1137.43 -58.9958 1162.78 -92.4126 1186.46 -128C1207.92 -160.251 1228.3 -191.773 1240.73 -225.529C1256.07 -267.152 1259.48 -313.144 1249.13 -357.14" stroke="#E3E3E3" stroke-miterlimit="10"/>
<path d="M38.9297 482.828C64.8984 407.312 109.236 328.596 182.85 300.2C236.47 279.517 299.377 289.828 347.782 320.428C386.972 345.203 418.31 379.56 456.681 395.667C504.981 415.723 559.824 404.708 612.143 377.443C668.301 348.179 710.459 298.642 767.783 280.489C809.811 267.179 856.661 272.645 899.641 287.394C959.243 307.847 997.021 351.079 1052.93 365.461C1102.9 378.106 1148.77 373.201 1180.31 349.443C1212.77 325 1230.3 270.624 1217.08 221.321C1206.81 183.032 1191.43 143.599 1170.61 106.677C1149.68 69.5633 1135.27 27.1982 1140.91 -11.298C1146.63 -50.3151 1170.39 -84.82 1193.94 -119.84C1215.71 -152.201 1237.63 -183.241 1251.61 -217.169C1268.99 -259.379 1274.02 -306.733 1264.75 -352.213" stroke="#E9E9E9" stroke-miterlimit="10"/>
<path d="M41.1289 485.362C68.9837 408.389 113.107 327.674 188.134 297.963C242.053 276.61 305.8 286.379 354.137 318.275C392.824 343.802 422.744 380.07 460.987 398.854C509.076 422.303 566.467 415.348 618.699 388.507C675.744 359.195 717.123 305.983 775.358 285.779C818.403 270.845 866.732 275.962 910.998 290.465C967.747 309.055 1007.55 346.872 1061.53 360.995C1108.79 373.189 1154.21 370.745 1186.62 347.651C1219.54 324.196 1237 272.62 1227.49 225.612C1219.59 186.574 1204.79 147.17 1184.46 110.477C1164.73 74.8627 1149.04 35.3471 1152.3 -2.21327C1155.72 -41.611 1177.99 -77.222 1201.41 -111.676C1223.48 -144.145 1246.96 -174.69 1262.47 -208.806C1281.91 -251.584 1288.56 -300.315 1280.37 -347.282" stroke="#EEEEEE" stroke-miterlimit="10"/>
<path d="M43.3281 487.895C73.0676 409.466 116.986 326.762 193.417 295.725C247.638 273.708 312.23 282.919 360.491 316.121C398.681 342.394 427.177 380.577 465.29 402.04C513.172 428.882 573.16 426.097 625.254 399.57C683.241 370.333 723.77 313.316 782.934 291.07C826.986 274.505 876.787 279.357 922.354 293.534C976.253 310.302 1018.08 342.664 1070.13 356.529C1114.68 368.271 1159.66 368.271 1192.94 345.857C1226.32 323.376 1243.88 274.702 1237.9 229.901C1232.6 190.146 1218.13 150.747 1198.31 114.275C1179.78 80.164 1162.75 43.5411 1163.69 6.87034C1164.72 -32.8707 1185.66 -69.5788 1208.89 -103.514C1231.33 -136.045 1256.29 -166.126 1273.33 -200.443C1294.84 -243.774 1303.09 -293.9 1295.98 -342.352" stroke="#F4F4F4" stroke-miterlimit="10"/>
<path d="M45.5273 490.427C77.153 410.541 120.912 325.97 198.699 293.486C253.257 270.886 318.672 279.448 366.846 313.964C404.548 340.978 431.611 381.082 469.596 405.226C517.269 435.462 579.783 436.695 631.812 410.634C690.661 381.307 730.407 320.644 790.512 296.36C835.565 278.158 886.826 282.845 933.713 296.604C984.767 311.587 1028.61 338.454 1078.73 352.062C1120.58 363.352 1165.1 365.784 1199.25 344.063C1233.09 322.544 1250.92 276.935 1248.32 234.19C1245.85 193.796 1231.46 154.33 1212.17 118.071C1194.82 85.4694 1176.4 51.7943 1175.09 15.952C1173.62 -24.0771 1193.25 -61.9986 1216.37 -95.3528C1239.09 -128.005 1265.63 -157.553 1284.19 -192.082C1307.78 -235.949 1317.63 -287.486 1311.6 -337.425" stroke="#F9F9F9" stroke-miterlimit="10"/>
<path d="M47.7266 492.96C81.2383 411.618 124.757 324.963 203.983 291.249C258.818 267.915 325.127 275.97 373.201 311.81C410.424 339.559 436.045 381.59 473.903 408.412C521.366 442.041 586.406 447.295 638.37 421.697C698.083 392.28 737.032 327.967 798.09 301.649C844.132 281.804 896.848 286.438 945.072 299.672C993.297 312.905 1039.14 334.244 1087.34 347.592C1126.47 358.432 1170.54 363.275 1205.57 342.265C1239.86 321.694 1258.09 279.381 1258.73 238.476C1259.37 197.57 1244.77 157.917 1226.02 121.866C1209.85 90.7748 1190 60.1253 1186.48 25.0323C1182.45 -15.2148 1200.83 -54.4215 1223.84 -87.1949C1246.85 -119.968 1274.97 -148.97 1295.06 -183.724C1320.72 -228.112 1332.17 -281.076 1327.22 -332.5" stroke="white" stroke-miterlimit="10"/>
</svg>
