<svg width="1110" height="385" viewBox="0 0 1110 385" fill="none" xmlns="http://www.w3.org/2000/svg">
<path d="M-506.449 1061.23C-514.704 991.716 -448.863 932.984 -382.46 922.182C-316.059 911.38 -249.448 933.667 -183.655 947.95C-117.861 962.233 -43.8358 966.955 11.1239 926.643C81.3873 875.108 97.6424 766.694 169.926 718.289C226.267 680.56 299.604 691.849 357.327 719.918C389.965 735.787 417.715 762.485 448.911 781.081C590.383 865.416 599.922 1037.76 720.114 1063.46C850.252 1091.29 920.867 1025.16 945.429 979.302C976.89 920.557 1029.35 768.125 900.806 662.195C848.587 619.162 797.032 573.298 758.616 516.634C701.101 431.8 701.491 302.104 775.04 232.004C825.449 183.96 902.868 166.394 937.112 104.795C960.129 63.3935 956.982 10.0167 937.198 -33.1615C917.415 -76.3397 882.951 -110.487 845.509 -138.18" stroke="#E3E3E3" stroke-miterlimit="10"/>
<path d="M-503.47 1064.7C-509.168 993.191 -443.687 931.411 -375.302 919.119C-308.556 907.121 -240.846 929.232 -175.045 945.001C-110.021 960.584 -37.8294 967.651 16.9557 931.008C86.9348 884.12 106.615 781.211 178.81 733.441C236.32 695.593 308.494 702.627 367.594 727.164C401.544 741.259 431.63 766.423 464.301 785.285C602.802 865.251 614.192 1032 731.77 1057.35C858.236 1084.55 928.462 1021.97 953.986 976.846C986.327 919.659 1036.38 772.791 914.918 668.071C864.845 624.897 815.185 578.152 777.388 521.837C721.57 439.015 721.062 313.935 790.48 244.446C838.507 196.367 913.147 176.78 947.246 115.976C970.651 74.4087 969.209 21.7943 951.922 -21.7069C934.474 -65.6128 902.653 -101.7 866.675 -131.427" stroke="#DEDEDE" stroke-miterlimit="10"/>
<path d="M-500.488 1068.17C-503.631 994.67 -438.512 929.866 -368.143 916.059C-301.049 902.896 -232.245 924.784 -166.432 942.055C-102.177 958.918 -31.8175 968.35 22.793 935.379C92.4896 893.137 115.488 795.564 187.698 748.602C246.296 710.491 317.458 713.365 377.863 734.417C413.168 746.721 445.531 770.375 479.693 789.497C615.092 865.286 628.464 1026.24 743.426 1051.24C866.221 1077.83 936.045 1018.79 962.541 974.395C995.742 918.761 1043.42 777.366 929.031 673.951C881.086 630.605 833.338 583.011 796.162 527.044C742.038 446.234 740.631 325.731 805.92 256.891C851.577 208.752 923.427 187.167 957.379 127.161C981.172 85.4276 981.45 33.539 966.647 -10.2464C951.545 -54.9168 922.356 -92.9068 887.841 -124.668" stroke="#DEDEDE" stroke-miterlimit="10"/>
<path d="M-497.508 1071.63C-498.094 996.138 -433.339 928.331 -360.982 912.989C-293.543 898.688 -223.645 920.307 -157.82 939.098C-94.3359 957.22 -25.8084 969.04 28.6276 939.736C98.0417 902.142 124.422 810.003 196.582 763.746C256.316 725.454 326.482 724.031 388.13 741.654C424.824 752.143 459.418 774.321 495.084 793.692C627.266 865.485 642.733 1020.47 755.085 1045.11C874.207 1071.08 943.616 1015.59 971.099 971.93C1005.14 917.848 1050.48 781.817 943.143 679.818C897.308 636.262 851.644 587.75 814.934 532.237C762.723 453.283 760.194 337.465 821.358 269.323C864.649 221.093 933.569 197.456 967.511 138.331C991.598 96.3708 993.713 45.2344 981.371 1.19559C968.627 -44.2762 942.058 -84.1305 909.007 -117.928" stroke="#D5D0D0" stroke-miterlimit="10"/>
<path d="M-494.523 1075.11C-492.554 997.619 -428.159 926.831 -353.82 909.928C-286.032 894.514 -215.045 915.825 -149.206 936.151C-86.4949 955.512 -19.7974 969.74 34.464 944.103C103.594 911.156 133.366 824.465 205.469 778.901C266.345 740.433 335.557 734.647 398.4 748.902C436.514 757.547 473.292 778.29 510.477 797.898C639.342 865.854 657.006 1014.71 766.743 1038.99C882.194 1064.35 951.172 1012.4 979.658 969.474C1014.52 916.937 1057.56 786.16 957.257 685.694C913.521 641.886 869.844 592.573 833.707 537.441C783.249 460.459 779.75 349.161 836.798 281.765C877.725 233.415 943.815 207.819 977.643 149.511C1002.09 107.37 1006 56.9078 996.095 12.6503C985.73 -33.6576 961.759 -75.3436 930.171 -111.175" stroke="#C6C6C6" stroke-miterlimit="10"/>
<path d="M-491.537 1078.57C-487.014 999.088 -422.978 925.34 -346.656 906.858C-278.516 890.357 -206.443 911.315 -140.589 933.196C-78.6458 953.778 -13.7393 970.544 40.3044 948.463C109.207 920.31 142.321 838.927 214.362 794.048C276.381 755.41 344.679 745.191 408.675 756.144C448.231 762.912 487.157 782.265 525.874 802.098C651.336 866.366 671.281 1008.94 778.405 1032.87C890.184 1057.61 958.718 1009.2 988.219 967.014C1023.88 916.017 1064.68 790.368 971.373 691.564C929.724 647.462 888.044 597.395 852.484 542.636C803.774 467.629 799.293 360.794 852.241 294.199C890.808 245.692 954.067 218.178 987.779 160.682C1012.59 118.359 1018.32 68.5427 1010.82 24.0971C1002.86 -23.0776 981.463 -66.5624 951.338 -104.43" stroke="#D4D4D4" stroke-miterlimit="10"/>
<path d="M-488.563 1082.04C-481.483 1000.56 -417.805 923.881 -339.503 903.796C-271.009 886.228 -197.85 906.795 -131.984 930.246C-70.8107 952.03 -7.7401 971.262 46.131 952.829C114.749 929.349 151.268 853.408 223.238 809.203C286.409 770.404 353.81 755.68 418.935 763.392C459.952 768.249 500.993 786.265 541.257 806.307C663.239 867.022 685.544 1003.18 790.053 1026.76C898.16 1050.88 966.235 1006.01 996.768 964.559C1033.21 915.095 1071.84 794.446 985.479 697.441C945.91 652.996 906.23 602.225 871.25 547.841C824.282 474.817 818.805 372.38 867.675 306.642C903.878 257.942 964.318 228.548 997.905 171.864C1023.09 129.36 1030.66 80.164 1025.54 35.5528C1020.02 -12.5131 1001.16 -57.7744 972.498 -97.6777" stroke="#CCCCCC" stroke-miterlimit="10"/>
<path d="M-485.58 1085.51C-475.945 1002.04 -412.622 922.437 -332.343 900.73C-263.491 882.113 -189.248 902.252 -123.371 927.294C-62.9598 950.259 -1.73305 971.973 51.9674 957.191C120.299 938.382 160.229 867.891 232.125 824.353C296.449 785.398 362.972 766.099 429.204 770.635C471.692 773.544 514.826 790.276 556.65 810.507C675.084 867.795 699.815 997.411 801.712 1020.64C906.147 1044.14 973.748 1002.79 1005.33 962.099C1042.53 914.156 1079.06 798.371 999.593 703.312C962.101 658.468 924.42 607.054 890.025 553.037C844.79 482 838.3 383.898 883.114 319.077C916.947 270.142 974.58 238.913 1008.04 183.038C1033.6 140.356 1043.05 91.763 1040.27 47.0005C1037.22 -1.97305 1020.86 -48.9923 993.666 -90.9297" stroke="#E3E3E3" stroke-miterlimit="10"/>
<path d="M-482.598 1088.98C-470.407 1003.51 -407.432 921.016 -325.18 897.668C-255.968 878.023 -180.64 897.695 -114.757 924.348C-55.1069 948.478 4.27219 972.688 57.8039 961.559C125.843 947.415 169.198 882.392 241.011 839.508C306.495 800.406 372.143 776.466 439.472 777.883C483.437 778.809 528.642 794.316 572.041 814.714C686.868 868.685 714.086 991.65 813.368 1014.52C914.131 1037.41 981.244 999.581 1013.88 959.645C1051.83 913.215 1086.36 802.146 1013.7 709.19C978.292 663.888 942.603 611.893 908.796 558.243C865.287 489.199 857.755 395.36 898.553 331.521C930 282.31 984.846 249.29 1018.17 194.221C1044.11 151.365 1055.47 103.359 1054.99 58.4572C1054.45 8.56165 1040.56 -40.2034 1014.83 -84.1748" stroke="#D2D2D2" stroke-miterlimit="10"/>
<path d="M-479.617 1092.45C-464.871 1004.99 -402.241 919.612 -318.022 894.605C-248.443 873.946 -172.03 893.119 -106.145 921.399C-47.252 946.675 10.2715 973.395 63.6404 965.924C131.385 956.441 178.171 896.896 249.898 854.663C316.545 815.42 381.314 786.778 449.741 785.13C495.186 784.037 542.448 798.379 587.434 818.919C698.603 869.68 728.359 985.886 825.026 1008.41C922.119 1030.67 988.729 996.36 1022.44 957.189C1061.11 912.259 1093.76 805.759 1027.82 715.066C994.499 669.245 960.783 616.733 927.567 563.444C885.776 496.399 877.169 406.756 913.989 343.961C943.031 294.43 995.113 259.665 1028.3 205.399C1054.61 162.37 1067.93 114.944 1069.71 69.9099C1071.71 19.0884 1060.26 -31.4163 1035.99 -77.4258" stroke="#D0CDCD" stroke-miterlimit="10"/>
<path d="M-476.635 1095.92C-459.334 1006.46 -397.044 918.224 -310.861 891.539C-240.913 869.88 -163.414 888.524 -97.5326 918.445C-39.3893 944.852 16.2706 974.093 69.4748 970.284C136.922 965.456 187.146 911.407 258.785 869.811C326.6 830.435 390.479 797.036 460.011 792.373C506.93 789.225 556.239 802.468 602.827 823.12C710.294 870.765 742.63 980.119 836.687 1002.29C930.108 1023.93 996.201 993.123 1031 954.73C1070.38 911.286 1101.27 809.203 1041.93 720.938C1010.74 674.53 978.961 621.572 946.343 568.643C906.263 503.603 896.536 418.085 929.433 356.398C956.043 306.501 1005.39 270.042 1038.44 216.575C1065.14 173.375 1080.43 126.531 1084.44 81.3597C1089.03 29.6121 1079.97 -22.6343 1057.16 -70.6777" stroke="#D5D5D5" stroke-miterlimit="10"/>
<path d="M-473.648 1099.39C-453.792 1007.94 -391.838 916.853 -303.695 888.473C-233.373 865.83 -154.784 883.909 -88.9148 915.494C-31.517 943.018 22.2737 974.791 75.315 974.65C142.464 974.472 196.133 925.93 267.675 884.964C336.662 845.463 399.638 807.256 470.284 799.619C518.671 794.388 570.021 806.59 618.223 827.325C721.948 871.944 756.906 974.356 848.348 996.17C938.097 1017.2 1003.66 989.877 1039.56 952.272C1079.63 910.302 1108.91 812.487 1056.05 726.812C1027.01 679.745 997.135 626.42 965.121 573.842C926.744 510.814 915.844 429.354 944.877 368.837C969.013 318.528 1015.68 280.424 1048.57 227.75C1075.66 184.382 1092.96 138.121 1099.17 92.8085C1106.38 40.1431 1099.68 -13.8511 1078.33 -63.9307" stroke="#DEDEDE" stroke-miterlimit="10"/>
<path d="M-470.668 1102.85C-448.256 1009.41 -386.631 915.497 -296.536 885.404C-225.836 861.789 -146.153 879.273 -80.3028 912.539C-23.6405 941.162 28.271 975.479 81.1495 979.009C148 983.474 205.115 940.453 276.56 900.112C346.721 860.493 408.779 817.433 480.551 806.861C530.397 799.518 583.78 810.747 633.614 831.526C733.565 873.202 771.134 968.778 860.005 990.05C946.041 1010.64 1011.1 986.614 1048.12 949.814C1088.87 909.301 1116.7 815.614 1070.16 732.684C1043.34 684.888 1015.3 631.268 983.894 579.042C947.21 518.032 935.074 440.568 960.316 381.275C981.928 330.512 1025.97 290.807 1058.71 238.927C1086.18 195.393 1105.51 149.723 1113.89 104.259C1123.76 50.6882 1119.38 -5.06812 1099.5 -57.1816" stroke="#CDCDCD" stroke-miterlimit="10"/>
<path d="M-467.686 1106.33C-442.717 1010.89 -381.414 914.167 -289.376 882.345C-218.293 857.767 -137.511 874.632 -71.6908 909.592C-15.7582 939.301 34.2683 976.169 86.9841 983.376C153.538 992.477 214.104 954.994 285.444 915.267C356.787 875.539 417.904 827.586 490.817 814.108C542.111 804.627 597.523 814.952 649.003 835.732C745.153 874.54 785.401 963.018 871.659 983.935C954.023 1003.91 1018.53 983.342 1056.67 947.357C1098.09 908.286 1124.66 818.597 1084.27 738.56C1059.74 689.958 1033.45 636.127 1002.66 584.243C967.665 525.257 954.221 451.736 975.755 393.715C994.777 342.458 1036.25 301.197 1068.84 250.106C1096.71 206.408 1118.09 161.341 1128.61 115.712C1141.18 61.2496 1139.08 3.71686 1120.66 -50.4307" stroke="#D2D2D2" stroke-miterlimit="10"/>
<path d="M-464.707 1109.8C-437.185 1012.36 -376.196 912.846 -282.219 879.279C-210.75 853.751 -128.864 869.968 -63.0828 906.641C-7.872 937.423 40.2656 976.85 92.8146 987.74C159.075 1001.47 223.093 969.538 294.325 930.418C366.85 890.588 427.004 837.706 501.081 821.352C553.808 809.712 611.247 819.206 664.39 839.934C756.715 875.947 799.668 957.248 883.311 977.815C962.003 997.166 1025.94 980.047 1065.22 944.899C1107.29 907.253 1132.82 821.45 1098.38 744.434C1076.25 694.955 1051.59 640.988 1021.43 589.444C988.103 532.488 973.272 462.866 991.185 406.155C1007.54 354.372 1046.54 311.589 1078.96 261.284C1107.23 217.426 1130.68 172.976 1143.33 127.165C1158.61 71.8335 1158.77 12.5039 1141.82 -43.6797" stroke="#D8D8D8" stroke-miterlimit="10"/>
<path d="M-461.725 1113.27C-431.647 1013.83 -370.967 911.54 -275.057 876.212C-203.195 849.743 -120.197 865.284 -54.4669 903.689C0.0338457 935.532 46.2726 977.526 98.6549 992.104C164.625 1010.46 232.091 984.088 303.218 945.569C376.931 905.647 436.098 847.803 511.356 828.598C565.506 814.779 624.965 823.516 679.787 844.138C768.271 877.422 813.945 951.477 894.974 971.698C969.996 990.421 1033.36 976.739 1073.79 942.441C1116.5 906.203 1141.19 824.205 1112.49 750.306C1092.91 699.887 1069.73 645.854 1040.21 594.644C1008.55 539.724 992.241 473.973 1006.63 418.593C1020.22 366.263 1056.84 321.981 1089.1 272.461C1117.77 228.445 1143.3 184.627 1158.06 138.615C1176.08 82.436 1178.48 21.2869 1162.99 -36.9307" stroke="#DEDEDE" stroke-miterlimit="10"/>
<path d="M-458.742 1116.74C-426.108 1015.31 -365.733 910.252 -267.897 873.149C-195.638 845.749 -111.523 860.592 -45.8549 900.74C7.94359 933.632 52.2777 978.204 104.489 996.47C170.171 1019.45 241.089 998.649 312.102 960.724C387.007 920.719 445.165 857.887 521.623 835.846C577.179 819.83 638.655 827.896 695.178 848.345C779.806 878.963 828.216 945.703 906.63 965.583C977.984 983.673 1040.76 973.415 1082.34 939.987C1125.69 905.14 1149.8 826.901 1126.61 756.185C1109.75 704.772 1087.86 650.733 1058.98 599.848C1028.97 546.97 1011.11 485.079 1022.07 431.036C1032.8 378.148 1067.15 332.381 1099.23 283.643C1128.31 239.473 1155.93 196.301 1172.78 150.071C1193.56 93.0657 1198.18 30.0769 1184.15 -30.1768" stroke="#E3E3E3" stroke-miterlimit="10"/>
<path d="M-455.758 1120.21C-420.568 1016.78 -360.487 908.978 -260.734 870.088C-188.076 841.761 -102.832 855.883 -37.239 897.792C15.867 931.722 58.3319 978.776 110.328 1000.84C175.778 1028.3 250.094 1013.22 320.991 975.877C397.09 935.798 454.217 867.954 531.895 843.092C588.845 824.864 652.332 832.35 710.573 852.549C791.339 880.561 842.53 939.77 918.292 959.466C986.009 976.785 1048.16 970.067 1090.91 937.529C1134.89 904.053 1158.64 829.582 1140.73 762.059C1126.81 709.62 1105.98 655.614 1077.76 605.048C1049.39 554.218 1029.87 496.197 1037.51 443.474C1045.26 390.038 1077.46 342.782 1109.37 294.82C1138.86 250.499 1168.58 207.989 1187.51 161.522C1211.07 103.713 1217.89 38.8599 1205.33 -23.4277" stroke="#E9E9E9" stroke-miterlimit="10"/>
<path d="M-452.777 1123.68C-415.032 1018.26 -355.241 907.713 -253.574 867.023C-180.509 837.778 -94.1279 851.158 -28.627 894.841C23.7964 929.801 64.3409 979.472 116.162 1005.2C181.328 1037.31 259.096 1027.79 329.875 991.028C407.175 950.883 463.246 878.007 542.16 850.336C600.49 829.883 665.979 836.891 725.962 856.753C802.861 882.214 856.797 934.006 929.946 953.349C993.992 970.048 1055.54 966.702 1099.46 935.073C1144.07 902.95 1167.73 832.314 1154.83 767.933C1144.13 714.468 1124.07 660.503 1096.53 610.249C1069.79 561.474 1048.53 507.355 1052.95 455.914C1057.58 401.957 1087.76 353.186 1119.5 305.999C1149.41 261.531 1181.21 219.697 1202.23 172.975C1228.58 114.387 1237.58 47.6469 1226.48 -16.6768" stroke="#EEEEEE" stroke-miterlimit="10"/>
<path d="M-449.795 1127.14C-409.496 1019.73 -349.983 906.462 -246.413 863.956C-172.939 833.802 -85.412 846.417 -20.0151 891.889C31.7356 927.871 70.35 980.165 121.997 1009.56C186.88 1046.32 268.169 1042.51 338.76 1006.18C417.336 966.135 472.257 888.048 552.428 857.581C612.123 834.894 679.607 841.54 741.353 860.956C814.39 883.92 871.068 928.241 941.602 947.23C1001.98 963.312 1062.92 963.312 1108.02 932.614C1153.24 901.826 1177.05 835.164 1168.95 773.806C1161.75 719.36 1142.15 665.401 1115.3 615.45C1090.19 568.733 1067.11 518.576 1068.39 468.353C1069.78 413.926 1098.16 363.652 1129.63 317.176C1160.04 272.622 1193.86 231.425 1216.95 184.426C1246.11 125.082 1257.29 56.431 1247.65 -9.92676" stroke="#F4F4F4" stroke-miterlimit="10"/>
<path d="M-446.816 1130.61C-403.961 1021.21 -344.665 905.38 -239.257 860.891C-165.327 829.939 -76.6843 841.665 -11.4051 888.938C39.6845 925.934 76.3571 980.859 127.829 1013.93C192.43 1055.34 277.142 1057.02 347.645 1021.33C427.39 981.167 481.249 898.086 562.695 864.828C623.745 839.899 693.209 846.318 756.744 865.162C825.927 885.682 885.339 922.478 953.258 941.115C1009.96 956.577 1070.29 959.907 1116.57 930.16C1162.42 900.688 1186.59 838.225 1183.06 779.682C1179.72 724.361 1160.21 670.31 1134.07 620.651C1110.56 576.001 1085.6 529.881 1083.82 480.793C1081.84 425.971 1108.43 374.036 1139.76 328.355C1170.55 283.636 1206.52 243.168 1231.67 195.879C1263.63 135.801 1276.99 65.218 1268.81 -3.17578" stroke="#F9F9F9" stroke-miterlimit="10"/>
<path d="M-443.836 1134.08C-398.425 1022.68 -339.454 903.998 -232.096 857.825C-157.79 825.868 -67.9369 836.9 -2.79302 885.984C47.6474 923.989 82.3661 981.552 133.666 1018.29C197.982 1064.34 286.117 1071.54 356.531 1036.48C437.448 996.193 490.226 908.113 572.965 872.069C635.355 844.889 706.789 851.237 772.137 869.361C837.485 887.485 899.61 916.709 964.917 934.991C1017.95 949.836 1077.66 956.47 1125.13 927.695C1171.6 899.521 1196.3 841.572 1197.17 785.55C1198.03 729.527 1178.25 675.22 1152.84 625.846C1130.93 583.265 1104.03 541.289 1099.26 493.227C1093.8 438.106 1118.71 384.411 1149.89 339.525C1181.08 294.64 1219.17 254.921 1246.4 207.323C1281.17 146.532 1296.69 73.9944 1289.98 3.56665" stroke="white" stroke-miterlimit="10"/>
</svg>
