<svg width="20" height="20" viewBox="0 0 20 20" fill="none" xmlns="http://www.w3.org/2000/svg">
<path d="M11.6218 3.11425C11.6435 3.03303 11.681 2.95688 11.7322 2.89016C11.7833 2.82344 11.8472 2.76746 11.92 2.72541C11.9928 2.68336 12.0732 2.65606 12.1565 2.64509C12.2399 2.63411 12.3246 2.63967 12.4058 2.66144C13.5923 2.97101 14.6748 3.59125 15.5418 4.45829C16.4089 5.32533 17.0291 6.40783 17.3387 7.59429C17.3604 7.6755 17.366 7.76021 17.355 7.84357C17.3441 7.92693 17.3168 8.00731 17.2747 8.08011C17.2327 8.15292 17.1767 8.21673 17.11 8.2679C17.0432 8.31906 16.9671 8.35658 16.8859 8.3783C16.8318 8.3925 16.7762 8.39976 16.7203 8.3999C16.5792 8.3999 16.4421 8.35331 16.3303 8.26737C16.2185 8.18144 16.1382 8.06097 16.1019 7.9247C15.8494 6.95614 15.3432 6.07244 14.6354 5.36469C13.9276 4.65693 13.0439 4.15073 12.0754 3.89826C11.9941 3.87662 11.9179 3.83916 11.851 3.78804C11.7842 3.73691 11.7282 3.67311 11.686 3.6003C11.6439 3.52748 11.6165 3.44707 11.6055 3.36367C11.5945 3.28027 11.6 3.19551 11.6218 3.11425ZM11.4354 6.45828C12.5386 6.75268 13.2474 7.46149 13.5418 8.5647C13.5781 8.70098 13.6584 8.82145 13.7703 8.90738C13.8821 8.99331 14.0192 9.0399 14.1602 9.03991C14.2161 9.03976 14.2718 9.03251 14.3258 9.01831C14.407 8.99658 14.4832 8.95906 14.5499 8.9079C14.6166 8.85674 14.6726 8.79293 14.7147 8.72012C14.7567 8.64731 14.784 8.56693 14.795 8.48357C14.806 8.40021 14.8004 8.31551 14.7786 8.2343C14.369 6.70148 13.2986 5.63107 11.7658 5.22147C11.6846 5.19977 11.5999 5.19429 11.5165 5.20532C11.4332 5.21636 11.3529 5.2437 11.2801 5.28578C11.2073 5.32786 11.1436 5.38387 11.0925 5.4506C11.0413 5.51732 11.0039 5.59346 10.9822 5.67467C10.9605 5.75588 10.955 5.84057 10.966 5.9239C10.977 6.00723 11.0044 6.08757 11.0465 6.16034C11.0886 6.2331 11.1446 6.29687 11.2113 6.34799C11.278 6.39911 11.3542 6.43659 11.4354 6.45828ZM17.9907 14.0864C17.848 15.1704 17.3157 16.1654 16.493 16.8856C15.6703 17.6058 14.6136 18.002 13.5202 18C7.1681 18 2.00001 12.8319 2.00001 6.47988C1.99805 5.3865 2.39416 4.3298 3.11437 3.50713C3.83458 2.68446 4.82963 2.15208 5.91367 2.00944C6.1878 1.97597 6.4654 2.03205 6.70504 2.16931C6.94467 2.30657 7.13349 2.51765 7.2433 2.77105L8.93293 6.54308V6.55268C9.017 6.74665 9.05172 6.95841 9.03399 7.16907C9.01626 7.37972 8.94663 7.58271 8.83133 7.75989C8.81692 7.78149 8.80172 7.80149 8.78572 7.82149L7.1201 9.79591C7.71931 11.0135 8.99293 12.2759 10.2265 12.8767L12.1738 11.2199C12.1929 11.2039 12.2129 11.1889 12.2338 11.1751C12.4108 11.057 12.6145 10.985 12.8264 10.9654C13.0383 10.9459 13.2517 10.9794 13.4474 11.0631L13.4578 11.0679L17.2267 12.7567C17.4805 12.8662 17.6921 13.0548 17.8298 13.2945C17.9675 13.5341 18.024 13.812 17.9907 14.0864ZM16.7203 13.9264H16.7115L12.9514 12.2423L11.0034 13.8992C10.9845 13.9152 10.9647 13.9301 10.9442 13.944C10.76 14.0668 10.547 14.1398 10.3262 14.1558C10.1053 14.1718 9.88412 14.1302 9.68414 14.0352C8.18571 13.3111 6.69209 11.8287 5.96728 10.3463C5.8713 10.1478 5.82823 9.92786 5.84225 9.7078C5.85626 9.48775 5.92689 9.27504 6.04728 9.09031C6.06085 9.06861 6.07609 9.04802 6.09288 9.02871L7.76011 7.05189L6.08008 3.29185C6.07976 3.28866 6.07976 3.28544 6.08008 3.28225C5.30427 3.38345 4.59195 3.76399 4.07653 4.35259C3.56111 4.9412 3.27793 5.69751 3.28003 6.47988C3.28299 9.19481 4.36282 11.7977 6.28258 13.7174C8.20234 15.6372 10.8053 16.717 13.5202 16.72C14.3021 16.7227 15.0582 16.4405 15.6472 15.9262C16.2361 15.4119 16.6176 14.7007 16.7203 13.9256V13.9264Z" fill="#5D7DDA"/>
</svg>
