<svg width="1110" height="614" viewBox="0 0 1110 614" fill="none" xmlns="http://www.w3.org/2000/svg">
<mask id="mask0_140_484" style="mask-type:luminance" maskUnits="userSpaceOnUse" x="0" y="0" width="1110" height="614">
<path d="M1110 0H0V614H1110V0Z" fill="white"/>
</mask>
<g mask="url(#mask0_140_484)">
<path d="M695 -85.4492C685.519 -51.7504 673.602 -18.5248 659.334 13.9929C652.991 28.4478 645.951 43.0877 633.703 54.6369C602.394 84.1592 547.604 85.0808 500.84 78.6674C457.769 72.7598 415.551 62.5845 375.367 48.4269C335.547 34.3971 297.036 16.295 254.37 10.3509C211.706 4.4068 162.082 13.963 139.093 44.3664C125.415 62.4555 123.237 85.3519 128.581 106.241C133.925 127.13 146.175 146.353 159.771 164.484C175.339 185.244 193.416 206.262 195.753 230.634C198.171 255.864 181.366 281.668 154.603 293.819C116.53 311.103 69.9164 300.262 27.2188 293.8C-27.0243 285.591 -85.2098 285.665 -134.766 305.721C-184.324 325.777 -222.631 369.363 -217.546 414.912" stroke="white" stroke-miterlimit="10"/>
<path d="M686 -92.4966C676.761 -59.5252 665.04 -27.0392 650.948 4.71367C644.684 18.8295 637.73 33.1098 625.792 44.4325C595.281 73.3687 542.258 74.9616 496.78 69.4535C485.982 68.1463 475.233 66.5625 464.552 64.7074C433.796 59.3637 403.608 51.7657 374.46 42.0281C335.545 29.0264 297.828 12.0547 256.13 6.59231C214.438 1.12861 167.403 11.1049 143.121 39.3928C133.986 50.0345 127.748 61.5033 125.108 73.8827C123.304 82.3157 122.916 91.0683 123.973 99.7713C124.453 103.752 125.216 107.733 126.257 111.727C130.432 127.693 139.321 143.33 149.049 158.181C150.014 159.654 150.987 161.123 151.964 162.587C167.179 185.389 183.244 208.702 184.123 234.199C184.968 258.759 169.357 283.731 143.285 295.717C106.19 312.772 60.9447 303.003 19.6238 297.553C16.366 297.123 13.0956 296.724 9.81416 296.36C-39.7825 290.855 -91.6422 293.101 -135.894 312.098C-183.074 332.348 -219.112 375.021 -213.405 419.317" stroke="#F9F9F9" stroke-miterlimit="10"/>
<path d="M676 -99.5439C667.005 -67.3554 655.477 -35.6673 641.564 -4.73133C635.379 9.02132 628.511 22.9173 616.883 33.994C587.173 62.2944 535.917 64.5559 491.729 59.9626C481.236 58.8729 470.783 57.5147 460.391 55.8919C430.462 51.2191 401.033 44.3499 372.565 35.3978C334.557 23.4452 297.636 7.63446 256.904 2.66312C216.187 -2.31083 171.465 8.02549 146.167 34.1922C135.964 44.7449 127.623 55.1529 123.178 67.1628C120.138 75.3445 118.431 84.0437 118.381 92.9697C118.349 97.0547 118.649 101.201 119.3 105.423C121.934 122.287 130.769 139.349 140.315 155.466C141.263 157.064 142.214 158.658 143.169 160.25C158.029 185.056 172.123 210.521 171.503 237.201C170.949 260.992 156.358 285.146 130.978 296.947C94.8634 313.742 50.9883 305.062 11.0443 300.632C7.89596 300.283 4.73508 299.965 1.56634 299.679C-46.3325 295.371 -95.9777 298.627 -138 317.778C-182.801 338.188 -216.569 379.876 -210.235 422.84" stroke="#F4F4F4" stroke-miterlimit="10"/>
<path d="M667 -106.591C658.249 -75.1322 646.918 -44.1858 633.18 -14.0156C627.075 -0.604123 620.293 12.9339 608.976 23.782C580.066 51.4946 530.581 54.4297 487.683 50.7419C477.495 49.8692 467.34 48.733 457.235 47.3398C428.135 43.3272 399.468 37.1765 371.678 28.996C334.579 18.0736 298.453 3.39544 258.693 -1.09331C218.952 -5.58597 176.278 5.06127 150.232 29.2165C138.893 39.7333 128.517 49.063 122.266 60.7239C117.992 68.6682 114.963 77.3274 113.806 86.494C113.265 90.6919 113.1 95.0084 113.363 99.4646C114.455 117.255 123.235 135.77 132.599 153.18C133.528 154.904 134.46 156.627 135.391 158.349C149.897 185.2 162.069 212.778 159.897 240.771C158.109 263.794 144.375 287.208 119.687 298.845C84.5545 315.41 42.0495 307.803 3.48542 304.386C0.445189 304.117 -2.60448 303.877 -5.66043 303.671C-51.8612 300.553 -99.2881 304.825 -139.077 324.16C-181.497 344.765 -212.993 385.537 -206.034 427.245" stroke="#EEEEEE" stroke-miterlimit="10"/>
<path d="M657 -112.758C648.492 -82.0802 637.358 -51.9278 623.8 -22.5731C617.772 -9.52364 611.078 3.63138 600.073 14.2344C571.965 41.3134 524.253 44.9146 482.648 42.141C472.766 41.4854 462.908 40.5757 453.092 39.4131C424.822 36.0699 396.917 30.6465 369.809 23.2499C333.618 13.3741 298.292 -0.145819 259.502 -4.14459C220.739 -8.14857 179.874 2.70598 153.322 24.8973C140.779 35.3804 128.435 43.5969 120.38 54.8894C114.869 62.5832 110.521 71.1895 108.255 80.5803C107.204 84.8828 106.575 89.3638 106.451 94.0481C106.001 112.736 114.725 132.674 123.906 151.347C124.816 153.197 125.728 155.045 126.637 156.894C140.787 185.746 151.102 215.324 147.313 244.648C144.447 266.84 131.413 289.503 107.421 300.957C73.2708 317.264 32.1392 310.743 -5.04474 308.343C-7.97676 308.154 -10.9151 307.995 -13.8597 307.868C-58.3603 305.945 -103.568 311.225 -141.122 330.713C-181.159 351.479 -210.382 391.267 -202.798 431.65" stroke="#E9E9E9" stroke-miterlimit="10"/>
<path d="M646 -119.805C637.746 -89.8578 626.821 -60.4518 613.458 -31.8636C607.517 -19.155 600.917 -6.36162 590.239 4.01214C562.965 30.5016 517.083 34.7773 476.819 32.9108C467.254 32.4712 457.707 31.7851 448.191 30.8525C420.785 28.1719 393.675 23.467 367.28 16.8447C332.044 8.00095 297.557 -4.38417 259.786 -7.89948C222.047 -11.4213 182.827 -0.437102 156.013 19.9217C142.219 30.3946 127.989 37.5061 118.14 48.4473C111.401 55.9031 105.74 64.469 102.37 74.0993C100.809 78.5146 99.718 83.1661 99.2045 88.0849C97.2149 107.7 105.872 129.093 114.861 149.061C115.753 151.037 116.642 153.015 117.526 154.995C131.304 185.893 139.823 217.469 134.353 248.223C130.55 269.604 118.096 291.567 94.8248 302.856C61.7001 318.93 21.9893 313.486 -13.7689 312.1C-16.5877 311.991 -19.4127 311.911 -22.2409 311.862C-64.9871 311.132 -107.923 317.429 -143.198 337.102C-180.806 358.062 -207.722 396.932 -199.523 436.054" stroke="#E3E3E3" stroke-miterlimit="10"/>
<path d="M638 -126.853C629.98 -97.6842 619.241 -69.0685 606.041 -41.2947C600.173 -28.9483 593.652 -16.5355 583.274 -6.40604C556.773 19.4519 512.614 24.3941 473.6 23.4387C464.33 23.2159 455.07 22.7545 445.833 22.0533C419.229 20.0397 392.852 16.0606 367.109 10.2217C332.745 2.42397 299.02 -8.80675 262.177 -11.8331C225.375 -14.8672 187.528 -3.86978 160.573 14.7221C145.436 25.163 129.348 31.1622 117.681 41.7361C109.699 48.9434 102.71 57.4555 98.2312 67.3099C96.1591 71.8298 94.601 76.6443 93.7002 81.7924C90.1659 102.303 98.7767 125.119 107.594 146.349C108.468 148.448 109.337 150.553 110.2 152.658C123.639 185.555 130.466 219.047 123.216 251.213C118.589 271.744 106.564 292.977 83.962 304.084C51.7841 319.901 13.4055 315.542 -21.0127 315.172C-23.7263 315.143 -26.4431 315.143 -29.1614 315.173C-70.2536 315.636 -111.016 322.94 -144.094 342.767C-179.36 363.887 -204.031 401.778 -195.197 439.578" stroke="#DEDEDE" stroke-miterlimit="10"/>
<path d="M628 -133.9C620.226 -105.464 609.684 -77.5967 596.664 -50.5916C590.876 -38.587 584.445 -26.5355 574.379 -16.636C548.683 8.63053 506.304 14.2468 468.59 14.2011C459.629 14.1959 450.665 13.9572 441.72 13.4864C415.951 12.1364 390.341 8.87834 365.284 3.81252C331.835 -2.95278 298.913 -13.0453 263.05 -15.5873C227.232 -18.1385 186.603 -10.9011 163.744 9.74439C145.258 17.5544 129.352 25.0658 115.881 35.2887C106.664 42.2575 98.3574 50.7288 92.7703 60.8226C90.1874 65.4541 88.1658 70.4404 86.8767 75.8244C81.8005 97.2629 90.3557 121.536 98.9863 144.059C99.8415 146.287 100.692 148.52 101.531 150.757C114.613 185.702 119.83 221.142 110.715 254.791C105.375 274.505 93.6868 295.043 71.7833 305.983C40.5952 321.568 3.59526 318.285 -29.4353 318.932C-32.0402 318.983 -34.6451 319.062 -37.25 319.172C-76.6332 320.828 -115.171 329.151 -146.007 349.162C-178.883 370.477 -201.276 407.446 -191.818 443.982" stroke="#D8D8D8" stroke-miterlimit="10"/>
<path d="M618 -140.066C610.473 -112.407 600.129 -85.3292 587.29 -59.1351C581.583 -47.4906 575.239 -35.8199 565.488 -26.1641C540.602 -1.52738 500.007 4.75431 463.595 5.61837C454.942 5.82949 446.278 5.81516 437.624 5.57536C412.692 4.89115 387.85 2.35762 363.48 -1.92618C330.951 -7.64746 298.836 -16.5878 263.951 -18.6417C229.122 -20.7061 189.787 -13.8053 166.951 5.42809C146.991 12.8097 129.396 19.6075 114.123 29.464C103.672 36.1836 94.0477 44.6026 87.3534 54.9205C84.2601 59.6578 81.7751 64.807 80.0964 70.4175C73.4792 92.7513 81.9763 118.444 90.4232 142.228C91.2609 144.579 92.0893 146.938 92.905 149.301C105.629 186.243 109.337 223.573 98.257 258.656C92.2967 277.531 80.8556 297.331 59.6521 308.091C29.4547 323.421 -6.16221 321.221 -37.8025 322.883C-40.2969 323.014 -42.7914 323.173 -45.2842 323.361C-82.9571 326.208 -119.264 335.536 -147.858 355.702C-178.343 377.178 -198.454 413.169 -188.376 448.387" stroke="#D2D2D2" stroke-miterlimit="10"/>
<path d="M608 -147.114C600.718 -120.189 590.575 -93.8597 577.919 -68.437C572.293 -57.1362 566.038 -45.8276 556.601 -36.4008C532.526 -12.3567 493.716 -5.40018 458.61 -3.62387C450.266 -3.19609 441.903 -2.98612 433.54 -2.99525C409.447 -3.01482 385.375 -4.82634 361.696 -8.33592C330.086 -13.0219 298.78 -20.8249 264.881 -22.3925C231.041 -23.9732 193.006 -17.4001 170.195 0.451735C148.763 7.41612 129.482 13.5106 112.409 23.0156C100.727 29.4961 89.7842 37.8742 81.9854 48.4317C78.3822 53.2807 75.4342 58.6018 73.3694 64.4485C65.2124 87.7114 73.6507 114.862 81.9131 139.943C82.7318 142.422 83.5395 144.909 84.333 147.403C96.6967 186.396 99.0067 225.683 85.8541 262.242C79.3517 280.316 68.0801 299.401 47.5782 309.994C18.374 325.089 -15.8572 323.968 -46.1064 326.646C-48.4918 326.857 -50.8756 327.096 -53.2531 327.362C-89.2112 331.405 -123.288 341.752 -149.636 362.102C-177.728 383.771 -195.558 418.841 -184.857 452.791" stroke="#CDCDCD" stroke-miterlimit="10"/>
<path d="M599 -154.161C591.966 -128.011 582.023 -102.469 569.551 -77.8557C564.006 -66.9139 557.841 -55.9852 548.721 -46.8015C525.458 -23.3842 488.439 -15.763 454.643 -13.0797C446.608 -12.4359 438.547 -12.002 430.476 -11.7804C407.226 -11.1353 383.928 -12.2235 360.94 -14.9511C330.255 -18.5962 299.761 -25.2478 266.849 -26.3294C234.002 -27.4241 197.27 -21.187 174.489 -4.7457C151.588 1.79119 130.625 7.17476 111.755 16.3129C98.8433 22.5461 86.5866 30.871 77.6834 41.6524C73.5727 46.6072 70.161 52.0911 67.709 58.1641C58.0142 82.3203 66.3927 110.891 74.468 137.231C75.2676 139.834 76.0545 142.448 76.8242 145.067C88.8265 186.054 89.8585 227.263 74.5168 265.223C67.5409 282.483 56.3743 300.811 36.5747 311.222C8.36828 326.062 -24.475 326.022 -53.3286 329.712C-55.6047 330.004 -57.876 330.321 -60.1395 330.666C-94.3808 335.899 -126.222 347.25 -150.324 367.754C-176.02 389.584 -191.569 423.68 -180.249 456.315" stroke="#DEDEDE" stroke-miterlimit="10"/>
<path d="M590 -161.208C583.204 -135.795 573.452 -111.004 561.15 -87.1627C555.681 -76.5642 549.597 -65.9996 540.783 -57.0456C518.307 -34.2238 483.037 -25.9271 450.51 -22.3303C442.776 -21.4683 435.008 -20.8111 427.222 -20.3585C404.787 -19.0479 382.235 -19.4144 359.912 -21.3653C330.117 -23.9735 300.402 -29.4847 268.439 -30.0793C236.549 -30.6897 201.077 -24.7807 178.298 -9.72354C153.903 -3.60467 131.234 1.07446 110.543 9.86022C96.3863 15.8539 82.8014 24.1376 72.7832 35.1586C68.1585 40.225 64.2805 45.8809 61.4384 52.1902C50.1941 77.276 58.524 107.306 66.4215 134.942C67.2028 137.673 67.9715 140.416 68.7181 143.166C80.3742 186.205 80.2548 229.434 62.5781 268.81C55.1773 285.297 44.0462 302.877 24.928 313.122C-2.31415 327.727 -33.8053 328.768 -61.2974 333.477C-63.4651 333.848 -65.6281 334.246 -67.7801 334.67C-100.342 341.099 -129.984 353.471 -151.866 374.16C-175.196 396.183 -188.48 429.353 -176.527 460.72" stroke="#D5D5D5" stroke-miterlimit="10"/>
<path d="M579 -167.375C572.454 -142.733 562.905 -118.728 550.791 -95.6933C545.406 -85.4532 539.413 -75.2664 530.918 -66.5562C509.262 -44.3609 475.792 -35.4004 444.584 -30.8967C437.162 -29.819 429.697 -28.9381 422.206 -28.2552C400.62 -26.2809 378.848 -25.9239 357.223 -27.0967C328.362 -28.6657 299.468 -33.0274 268.502 -33.1368C237.616 -33.2606 203.457 -27.6883 180.714 -14.0378C154.859 -8.34436 130.516 -4.37757 108.039 4.0434C92.657 9.789 77.7622 18.021 66.6454 29.2672C61.5134 34.4394 57.1747 40.2567 53.9466 46.7946C41.1694 72.7742 49.4368 104.219 57.1465 133.115C57.9099 135.969 58.656 138.838 59.3802 141.715C70.6714 186.745 69.5404 231.984 49.4163 272.669C41.6469 288.377 30.5206 305.168 12.1119 315.232C-14.1244 329.583 -44.2186 331.703 -70.3072 337.422C-72.365 337.874 -74.4149 338.35 -76.4539 338.853C-107.29 346.47 -134.69 359.844 -154.319 380.688C-175.247 402.874 -186.248 435.071 -173.678 465.125" stroke="#BCBCBC" stroke-miterlimit="10"/>
<path d="M570 -174.422C563.695 -150.52 554.34 -127.266 542.401 -105.007C537.092 -95.1117 531.187 -85.2885 522.999 -76.8085C502.14 -55.2086 470.433 -45.5719 440.509 -40.155C433.391 -38.8601 426.222 -37.7543 419.016 -36.8402C398.254 -34.1995 377.238 -33.1198 356.289 -33.5149C328.328 -34.0457 300.226 -37.2653 270.222 -36.8884C240.305 -36.5272 209.636 -27.832 184.689 -19.0207C158.859 -9.89516 131.302 -10.482 107.012 -2.41397C90.3897 3.09161 74.1707 11.2822 61.9417 22.768C56.297 28.0519 51.4931 34.0413 47.8756 40.8144C33.5518 67.7242 41.7658 100.63 49.2946 130.825C50.0395 133.807 50.7655 136.803 51.4664 139.812C62.4068 186.897 60.4064 234.277 37.6706 276.258C29.5603 291.232 18.392 307.235 0.672322 317.131C-24.5888 331.248 -53.3165 334.449 -78.0339 341.189C-79.984 341.721 -81.9232 342.278 -83.8498 342.86C-112.994 351.675 -138.181 366.071 -155.58 387.098C-174.131 409.476 -182.861 440.746 -169.662 469.529" stroke="#D2D2D2" stroke-miterlimit="10"/>
<path d="M561 -181.469C554.94 -158.337 545.78 -135.868 534.018 -114.413C528.789 -104.875 522.969 -95.4305 515.094 -87.1922C495.035 -66.2175 465.101 -55.9177 436.469 -49.5951C429.656 -48.0835 422.783 -46.7543 415.868 -45.6115C395.936 -42.3081 375.682 -40.5059 355.413 -40.1228C328.362 -39.6159 301.056 -41.6878 272.023 -40.8252C243.082 -39.9794 213.293 -31.9028 188.768 -24.2119C161.261 -15.5853 132.209 -16.8102 106.112 -9.10629C88.2532 -3.84826 70.712 4.29094 57.3735 15.9993C51.2189 21.3877 45.9492 27.5409 41.943 34.5412C26.0757 62.3442 34.2341 96.6654 41.5816 128.116C42.3077 131.221 43.0133 134.343 43.6923 137.479C54.2773 186.554 51.5631 236.09 26.0647 279.232C17.6469 293.473 6.40807 308.643 -10.6192 318.36C-34.898 332.221 -62.2525 336.501 -85.5883 344.251C-87.4287 344.864 -89.2581 345.498 -91.0718 346.159C-118.514 356.16 -141.482 371.558 -156.647 392.74C-172.815 415.281 -179.269 445.581 -165.445 473.053" stroke="#E3E3E3" stroke-miterlimit="10"/>
<path d="M551 -188.517C545.186 -166.124 536.225 -144.408 524.645 -123.73C519.497 -114.537 513.765 -105.458 506.204 -97.4504C486.954 -77.0724 458.803 -66.0958 431.473 -58.8589C424.968 -57.1298 418.395 -55.5755 411.771 -54.2012C392.676 -50.2307 373.191 -47.7049 353.609 -46.5431C327.477 -44.9967 300.979 -45.9251 272.926 -44.5755C244.973 -43.2441 216.086 -35.8286 191.979 -29.1941C162.783 -21.1579 132.265 -22.9183 104.369 -15.5679C85.2788 -10.549 66.4217 -2.45154 51.98 9.4965C45.3161 14.9978 39.584 21.322 35.1907 28.5589C17.7854 57.2913 25.8854 93.0754 33.049 125.825C33.7576 129.059 34.4427 132.311 35.0964 135.576C45.3224 186.708 42.0572 238.566 13.6435 282.825C4.94322 296.377 -6.38583 310.712 -22.7132 320.26C-45.9998 333.887 -71.9733 339.248 -93.9211 348.02C-95.6527 348.712 -97.3701 349.428 -99.0703 350.168C-124.803 361.369 -145.545 377.789 -158.467 399.154C-172.246 421.887 -176.424 451.259 -161.977 477.457" stroke="#CCCCCC" stroke-miterlimit="10"/>
<path d="M541 -194.683C535.434 -173.059 526.676 -152.126 515.283 -132.251C510.219 -123.416 504.577 -114.712 497.334 -106.947C478.901 -87.1924 452.543 -75.5534 426.526 -67.4119C420.331 -65.4677 414.061 -63.6904 407.732 -62.0863C389.482 -57.4539 370.773 -54.208 351.888 -52.269C326.686 -49.6851 301.005 -49.4688 273.945 -47.6341C246.991 -45.8189 219.047 -39.1225 195.341 -33.5063C164.461 -26.1896 132.501 -28.3644 102.822 -21.3774C82.511 -16.6043 62.3492 -8.55918 46.8103 3.6127C39.6406 9.21847 33.4492 15.7064 28.671 23.169C9.73723 52.7954 17.7752 89.9926 24.7502 123.999C25.4395 127.355 26.1037 130.733 26.7349 134.125C36.5991 187.244 32.9499 241.472 1.46999 286.675C-7.49287 299.547 -18.921 313 -34.5416 322.369C-56.8278 335.742 -81.4082 342.18 -101.958 351.96C-103.578 352.733 -105.185 353.526 -106.772 354.344C-130.784 366.73 -149.291 384.151 -159.97 405.672C-171.355 428.568 -173.255 456.971 -158.197 481.862" stroke="#D4D4D4" stroke-miterlimit="10"/>
<path d="M531 -201.73C525.678 -180.848 517.116 -160.669 505.899 -141.572C500.913 -133.083 495.358 -124.744 488.428 -117.211C470.795 -98.0553 446.209 -85.7376 421.484 -76.6809C415.595 -74.5191 409.622 -72.5163 403.581 -70.6804C386.161 -65.3789 368.212 -61.4086 350.007 -58.6913C325.714 -55.0678 300.83 -53.7053 274.74 -51.3831C248.763 -49.0817 221.773 -43.1387 198.411 -38.489C165.824 -32.0036 132.396 -34.4731 100.909 -27.8416C79.3604 -23.3106 57.8781 -15.3074 41.2296 -2.89451C33.55 2.82299 26.8928 9.48188 21.726 17.1826C1.24878 47.7389 9.233 86.4002 16.0252 121.707C16.6958 125.192 17.3397 128.698 17.9475 132.221C27.4566 187.398 23.5917 244.199 -11.1484 290.273C-20.3733 302.507 -31.9194 315.069 -46.8466 324.27C-68.1499 337.407 -91.3598 344.93 -110.53 355.731C-112.043 356.584 -113.538 357.459 -115.013 358.356C-137.326 371.943 -153.613 390.386 -162.057 412.09C-171.061 435.178 -170.687 462.651 -155.003 486.267" stroke="#C6C6C6" stroke-miterlimit="10"/>
<path d="M522 -208.778C516.917 -188.662 508.545 -169.265 497.499 -150.969C492.588 -142.836 487.117 -134.875 480.492 -127.582C463.648 -109.047 440.817 -96.0693 417.366 -86.109C411.778 -83.731 406.099 -81.5067 400.342 -79.4402C383.74 -73.4788 366.54 -68.788 349.003 -65.2946C325.6 -60.635 301.497 -58.1293 276.359 -55.3226C251.34 -52.538 225.339 -47.3937 202.254 -43.6788C167.949 -38.1579 133.014 -40.7952 99.6949 -34.5264C76.8926 -30.2421 54.0715 -22.2898 36.3021 -9.65439C28.1051 -3.8312 20.9785 2.99142 15.419 10.9177C-6.6178 42.3661 1.31671 82.4404 7.93247 119.001C8.58635 122.609 9.21035 126.24 9.79507 129.89C18.9556 187.053 15.0418 246.506 -23.1564 293.239C-32.647 304.85 -44.3209 316.476 -58.5646 325.498C-78.9007 338.382 -100.754 346.979 -118.556 358.789C-119.961 359.722 -121.346 360.674 -122.709 361.65C-143.336 376.42 -157.416 395.863 -163.629 417.723C-170.254 440.974 -167.604 467.48 -151.281 489.79" stroke="#C4C4C4" stroke-miterlimit="10"/>
<path d="M512 -215.825C507.162 -196.452 498.988 -177.811 488.121 -160.295C483.291 -152.508 477.906 -144.912 471.594 -137.852C455.556 -119.918 434.503 -106.261 412.35 -95.3846C407.07 -92.7887 401.689 -90.3389 396.221 -88.0416C380.453 -81.4104 364.019 -75.9944 347.166 -71.7205C324.677 -66.0203 301.377 -62.367 277.215 -59.0723C253.178 -55.801 228.249 -51.4815 205.404 -48.664C169.437 -44.2284 133 -46.909 97.878 -40.995C73.84 -36.9493 49.7015 -29.039 30.8252 -16.1639C22.1178 -10.2277 14.528 -3.23538 8.58057 4.92776C-14.9968 37.3078 -7.11936 78.8459 -0.6863 116.707C-0.0513238 120.444 0.552211 124.204 1.11489 127.985C9.91967 187.208 6.12712 249.552 -35.6634 296.837C-45.4144 307.87 -57.2023 318.544 -70.7505 327.397C-90.0984 340.046 -110.575 349.728 -126.991 362.561C-128.287 363.574 -129.561 364.608 -130.811 365.663C-149.733 381.636 -161.588 402.103 -165.563 424.145C-169.802 447.589 -164.876 473.162 -147.93 494.195" stroke="#DEDEDE" stroke-miterlimit="10"/>
<path d="M503 -221.992C498.405 -203.385 490.426 -185.523 479.736 -168.807C474.983 -161.376 469.685 -154.156 463.685 -147.336C448.448 -130.023 429.166 -115.705 408.302 -103.926C403.328 -101.116 398.244 -98.4431 393.063 -95.9166C378.124 -88.6252 362.451 -82.4907 346.276 -77.4417C324.695 -70.7066 302.189 -65.9116 278.995 -62.133C255.934 -58.3791 232.135 -54.9171 209.456 -52.9743C171.854 -49.7534 133.864 -52.3502 96.9286 -46.7982C71.6521 -43 46.187 -35.1418 26.1975 -22.0416C16.9771 -16.001 8.92152 -8.84501 2.58432 -0.455126C-22.5397 32.8152 -14.7168 75.7653 -8.46766 114.882C-7.85139 118.742 -7.26813 122.628 -6.72889 126.535C1.72123 187.742 -1.79245 253.085 -47.3477 300.68C-57.3699 311.153 -69.2693 320.83 -82.1245 329.505C-100.491 341.9 -119.594 352.658 -134.633 366.497C-135.82 367.59 -136.983 368.701 -138.122 369.835C-155.343 386.989 -164.978 408.455 -166.717 430.654C-168.57 454.26 -161.367 478.869 -143.792 498.599" stroke="#C9C9C9" stroke-miterlimit="10"/>
<path d="M493 -229.039C480.653 -178.278 440.621 -133.652 389.05 -104.517C337.478 -75.3827 275.165 -60.9725 212.893 -57.9569C173.758 -56.0613 134.216 -58.4628 95.5172 -53.2661C56.8171 -48.0681 17.539 -33.7764 -3.74668 -6.44612C-30.3859 27.7562 -22.6264 72.1707 -16.5661 112.589C-6.60016 179.055 -6.73992 253.464 -59.2929 304.284C-85.4688 329.597 -122.507 346.53 -145.572 373.85C-177.553 411.726 -175.071 467.2 -139.795 503.004" stroke="#D6D6D6" stroke-miterlimit="10"/>
<path d="M166 641.047C190.438 613.049 216.905 586.265 245.209 560.886C257.791 549.603 271.104 538.375 287.783 531.657C330.419 514.485 381.404 531.156 421.568 552.016C458.561 571.228 492.78 594.098 523.266 619.983C553.477 645.635 580.584 674.618 617.185 693.734C653.785 712.85 704.025 719.919 739.393 699.274C760.437 686.991 773.107 666.605 777.901 645.662C782.695 624.719 780.342 603.101 776.238 582.058C771.538 557.965 764.645 532.831 773.835 509.642C783.35 485.637 810.872 467.25 841.224 464.62C884.403 460.879 922.368 485.768 958.757 505.37C1004.99 530.275 1058.71 548.812 1113.78 546.191C1168.84 543.571 1224.48 515.686 1241 472.119" stroke="white" stroke-miterlimit="10"/>
<path d="M172 650.3C195.996 622.725 222.124 596.436 250.129 571.628C262.577 560.599 275.744 549.651 292.136 543.033C325.065 529.739 362.979 536.495 396.963 549.582C406.226 553.144 415.197 557.173 423.696 561.395C460.254 579.571 494.192 601.388 524.556 626.213C554.642 650.812 581.64 678.871 617.865 697.304C638.173 707.638 662.237 714.715 685.939 715.988C706.584 717.088 727.065 713.682 744.189 703.977C747.248 702.245 750.14 700.344 752.869 698.292C769.674 685.646 779.88 667.462 784.348 648.837C785.782 642.855 786.676 636.819 787.155 630.77C788.41 614.97 786.94 598.978 784.75 583.356C781.312 558.571 776.73 533.184 787.077 510.016C797.353 487.007 823.746 469.117 853.38 466.421C895.541 462.586 932.744 486.067 968.335 504.315C971.141 505.754 973.974 507.167 976.831 508.553C1020.03 529.501 1068.93 544.031 1118.6 540.698C1171.55 537.147 1224.66 509.374 1240 466.744" stroke="#F9F9F9" stroke-miterlimit="10"/>
<path d="M177 659.613C200.553 632.491 226.342 606.725 254.048 582.514C266.362 571.754 279.384 561.097 295.493 554.584C327.836 541.507 364.996 547.603 398.444 559.841C407.571 563.17 416.422 566.953 424.827 570.929C460.95 588.045 494.604 608.788 524.85 632.522C554.812 656.041 581.72 683.121 617.549 700.874C638.633 711.322 663.329 718.7 687.756 720.29C708.986 721.658 730.228 718.449 747.99 708.675C751.169 706.928 754.181 705.001 757.022 702.908C774.532 690.018 784.988 671.273 789.799 652.063C791.34 645.903 792.348 639.687 792.962 633.472C794.568 617.234 793.678 600.784 792.266 584.774C790.09 559.321 787.781 533.742 799.322 510.588C810.28 488.604 835.625 471.226 864.54 468.467C905.684 464.54 942.124 486.589 976.915 503.46C979.658 504.791 982.425 506.095 985.216 507.373C1027.41 526.678 1074.73 539.566 1122.42 535.359C1173.26 530.879 1223.83 503.248 1238 461.601" stroke="#F4F4F4" stroke-miterlimit="10"/>
<path d="M183 668.883C206.11 642.202 231.56 616.948 258.969 593.324C271.147 582.826 284.025 572.456 299.847 566.048C331.606 553.184 368.009 558.619 400.924 570.014C409.915 573.112 418.645 576.65 426.955 580.382C462.642 596.445 496.014 616.123 526.138 638.776C555.976 661.225 582.817 687.317 618.228 704.417C640.097 714.978 665.417 722.667 690.571 724.575C712.383 726.21 734.389 723.199 752.787 713.349C756.086 711.587 759.217 709.632 762.173 707.499C780.386 694.359 791.094 675.044 796.248 655.239C797.895 648.899 799.017 642.501 799.766 636.115C801.722 619.432 801.414 602.517 800.78 586.11C799.866 559.978 799.785 534.223 812.568 511.042C824.132 490.072 848.504 473.201 876.699 470.377C916.825 466.358 952.502 486.982 986.495 502.484C989.174 503.706 991.877 504.903 994.602 506.072C1035.78 523.742 1081.53 534.992 1127.24 529.909C1175.97 524.498 1224.01 496.995 1237 456.315" stroke="#EEEEEE" stroke-miterlimit="10"/>
<path d="M189 679.031C211.646 652.795 236.732 628.055 263.817 605.023C275.848 594.788 288.571 584.708 304.092 578.402C335.236 565.752 370.85 570.526 403.198 581.075C412.043 583.941 420.647 587.234 428.854 590.718C464.072 605.728 497.13 624.335 527.106 645.905C556.79 667.278 583.554 692.359 618.499 708.825C641.137 719.492 667.051 727.498 692.905 729.723C715.28 731.626 738.026 728.813 757.045 718.889C760.46 717.111 763.706 715.129 766.773 712.956C785.672 699.565 796.621 679.684 802.115 659.284C803.867 652.763 805.102 646.184 805.983 639.628C808.288 622.501 808.562 605.121 808.706 588.318C809.055 561.508 811.152 535.603 825.211 512.376C837.289 492.418 860.746 476.061 888.195 473.174C927.266 469.061 962.147 488.258 995.309 502.388C997.923 503.502 1000.56 504.59 1003.21 505.652C1043.34 521.683 1087.47 531.293 1131.16 525.333C1177.74 518.989 1223.2 491.62 1235 451.911" stroke="#E9E9E9" stroke-miterlimit="10"/>
<path d="M195 688.29C217.203 662.5 241.951 638.28 268.736 615.84C280.635 605.87 293.211 596.079 308.446 589.879C339.006 577.444 373.863 581.556 405.678 591.257C414.388 593.891 422.872 596.938 430.983 600.177C465.767 614.129 498.542 631.664 528.396 652.146C557.956 672.442 584.684 696.49 619.18 712.337C642.615 723.105 669.14 731.431 695.719 733.975C718.678 736.146 742.185 733.53 761.841 723.533C765.377 721.74 768.741 719.731 771.923 717.518C791.525 703.879 802.726 683.431 808.563 662.439C810.421 655.739 811.772 648.977 812.787 642.252C815.442 624.681 816.255 606.837 817.22 589.643C818.763 562.154 823.057 536.117 838.453 512.832C850.984 493.879 873.621 478.049 900.353 475.098C938.406 470.894 972.526 488.659 1004.89 501.413C1007.44 502.417 1010.01 503.397 1012.6 504.35C1051.71 518.74 1094.27 526.707 1135.98 519.87C1180.45 512.595 1223.37 485.36 1234 446.625" stroke="#E3E3E3" stroke-miterlimit="10"/>
<path d="M200 696.781C221.76 671.515 246.17 647.884 272.656 626.104C284.419 616.428 296.851 606.956 311.801 600.88C341.779 588.696 375.88 592.136 407.158 600.963C415.731 603.357 424.095 606.15 432.113 609.133C466.462 621.99 498.954 638.4 528.687 657.737C558.124 676.897 584.829 699.823 618.861 715.024C643.101 725.851 670.229 734.48 697.536 737.333C721.078 739.765 745.349 737.354 765.642 727.315C769.297 725.512 772.78 723.484 776.075 721.237C796.383 707.391 807.833 686.44 814.014 664.919C815.979 658.06 817.443 651.137 818.592 644.265C821.6 626.305 822.988 608.05 824.734 590.517C827.531 562.435 833.91 536.352 850.699 513.072C863.612 495.164 885.501 479.922 911.511 476.916C948.546 472.632 981.904 488.917 1013.47 500.26C1015.96 501.154 1018.46 502.022 1020.98 502.864C1059.09 515.574 1100.07 521.876 1139.8 514.185C1182.16 506.002 1222.54 478.985 1232 441.34" stroke="#DEDEDE" stroke-miterlimit="10"/>
<path d="M206 706.005C227.318 681.187 251.388 658.075 277.575 636.887C289.203 627.476 301.491 618.294 316.155 612.323C345.547 600.354 378.892 603.133 409.636 611.113C418.073 613.274 426.317 615.823 434.239 618.559C468.153 630.36 500.363 645.699 529.976 663.951C559.288 682.035 585.985 703.893 619.54 718.51C644.591 729.422 672.317 738.386 700.349 741.557C724.474 744.256 749.508 742.042 770.439 731.931C774.214 730.112 777.815 728.057 781.226 725.771C802.237 711.678 813.939 690.162 820.463 668.051C822.535 661.013 824.113 653.908 825.397 646.868C828.756 628.467 830.722 609.749 833.25 591.825C837.305 563.067 845.709 536.858 863.946 513.516C877.176 496.582 898.38 481.896 923.673 478.827C959.689 474.451 992.285 489.306 1023.05 499.274C1025.47 500.059 1027.92 500.821 1030.37 501.553C1067.46 512.623 1106.88 517.284 1144.63 508.718C1184.87 499.605 1222.72 472.723 1231 436.054" stroke="#D8D8D8" stroke-miterlimit="10"/>
<path d="M212 716.104C232.874 691.736 256.607 669.143 282.494 648.552C293.987 639.406 306.13 630.514 320.509 624.648C349.317 612.897 381.889 615.065 412.115 622.145C420.412 624.088 428.541 626.375 436.367 628.867C469.846 639.609 501.773 653.875 531.266 671.039C560.453 688.045 587.152 708.818 620.22 722.865C646.087 733.852 674.406 743.161 703.166 746.649C727.876 749.614 753.672 747.599 775.24 737.416C779.135 735.582 782.856 733.502 786.379 731.174C808.094 716.835 820.046 694.756 826.917 672.054C829.094 664.837 830.787 657.551 832.205 650.342C835.915 631.5 838.462 612.32 841.769 594.005C847.086 564.573 857.456 538.233 877.2 514.838C890.685 498.858 911.268 484.752 935.84 481.618C970.837 477.149 1002.67 490.573 1032.63 499.167C1035 499.844 1037.37 500.497 1039.76 501.12C1075.84 510.549 1113.68 513.568 1149.45 504.126C1187.58 494.083 1222.9 467.338 1230 431.649" stroke="#D2D2D2" stroke-miterlimit="10"/>
<path d="M217 725.316C237.431 701.399 260.824 679.328 286.413 659.333C297.772 650.453 309.771 641.854 323.863 636.093C352.086 624.559 383.903 626.069 413.592 632.296C421.752 634.008 429.761 636.048 437.493 638.291C470.536 647.975 502.182 661.164 531.554 677.24C560.617 693.165 587.326 712.839 619.898 726.329C646.589 737.382 675.494 747.041 704.979 750.847C730.273 754.081 756.832 752.265 779.038 742.01C783.054 740.161 786.893 738.055 790.531 735.687C812.951 721.102 825.156 698.46 832.369 675.169C834.654 667.773 836.46 660.308 838.013 652.931C842.074 633.648 845.201 614.007 849.289 595.303C855.867 565.198 868.142 538.71 889.455 515.28C903.141 500.235 923.155 486.73 947.008 483.534C980.987 478.974 1012.06 490.964 1041.22 498.18C1043.52 498.748 1045.83 499.291 1048.15 499.807C1083.22 507.593 1119.49 508.968 1153.28 498.652C1189.29 487.679 1222.07 461.073 1228 426.364" stroke="#CDCDCD" stroke-miterlimit="10"/>
<path d="M223 734.518C242.989 711.052 266.042 689.505 291.332 670.107C302.556 661.494 314.41 653.186 328.216 647.532C355.855 636.214 386.915 637.065 416.068 642.441C424.092 643.921 431.981 645.713 439.619 647.71C472.226 656.335 503.588 668.449 532.841 683.434C561.78 698.278 588.508 716.837 620.575 729.782C648.095 740.891 677.582 750.912 707.794 755.036C733.674 758.536 760.995 756.919 783.84 746.592C787.976 744.728 791.934 742.596 795.686 740.189C818.811 725.357 831.267 702.154 838.824 678.274C841.214 670.701 843.137 663.055 844.823 655.51C849.235 635.788 852.944 615.686 857.811 596.593C865.653 565.816 879.77 539.152 902.712 515.718C916.549 501.583 936.046 488.706 959.18 485.446C992.139 480.794 1022.45 491.351 1050.81 497.19C1053.05 497.65 1055.29 498.084 1057.55 498.492C1091.61 504.633 1126.3 504.365 1158.11 493.173C1192.01 481.27 1222.25 454.805 1227 421.079" stroke="#DEDEDE" stroke-miterlimit="10"/>
<path d="M229 743.713C248.526 720.7 271.219 699.677 296.183 680.877C307.261 672.531 318.959 664.515 332.466 658.968C359.492 647.869 389.769 648.058 418.356 652.583C426.237 653.83 433.998 655.375 441.532 657.126C473.672 664.689 504.721 675.728 533.823 689.62C562.608 703.382 589.337 720.813 620.86 733.226C649.19 744.381 679.218 754.772 710.128 759.213C736.565 762.981 764.623 761.562 788.083 751.164C792.334 749.285 796.406 747.127 800.27 744.68C824.076 729.603 836.771 705.839 844.664 681.372C847.159 673.62 849.194 665.795 851.013 658.083C855.772 637.923 860.061 617.36 865.698 597.879C874.798 566.432 890.674 539.556 915.287 516.154C929.221 502.907 948.22 490.682 970.611 487.359C1002.52 482.617 1032.04 491.738 1059.57 496.199C1061.74 496.549 1063.92 496.877 1066.11 497.174C1099.12 501.671 1132.2 499.755 1162 487.69C1193.75 474.856 1221.43 448.534 1225 415.793" stroke="#D5D5D5" stroke-miterlimit="10"/>
<path d="M234 753.782C253.082 731.225 275.436 710.725 300.102 692.525C311.045 684.446 322.599 676.724 335.82 671.284C362.262 660.403 391.784 659.929 419.833 663.603C427.578 664.617 435.22 665.915 442.658 667.418C474.363 673.922 505.131 683.881 534.111 696.683C562.772 709.362 589.534 725.65 620.538 737.542C649.709 748.73 680.306 759.504 711.943 764.262C738.963 768.298 767.785 767.076 791.882 756.61C796.254 754.716 800.444 752.532 804.421 750.045C828.932 734.724 841.878 710.399 850.117 685.346C852.719 677.416 854.867 669.411 856.82 661.532C861.93 640.933 866.848 619.923 873.217 600.043C883.657 567.943 901.169 540.793 927.54 517.473C941.547 505.087 960.108 493.543 981.779 490.155C1012.67 485.322 1041.42 493.007 1068.16 496.088C1070.27 496.331 1072.38 496.548 1074.5 496.737C1106.5 499.589 1138.01 496.028 1165.82 483.087C1195.46 469.324 1220.61 443.144 1223 411.389" stroke="#DCD8D8" stroke-miterlimit="10"/>
<path d="M240 762.96C258.64 740.858 280.654 720.885 305.021 703.285C315.828 695.474 327.239 688.044 340.173 682.712C366.029 672.051 394.798 670.913 422.311 673.737C429.922 674.518 437.44 675.57 444.784 676.825C476.053 682.267 506.537 691.149 535.399 702.857C563.936 714.453 590.737 729.588 621.217 740.969C651.238 752.178 682.396 763.346 714.758 768.422C742.362 772.724 771.948 771.702 796.682 761.165C801.174 759.256 805.483 757.046 809.575 754.52C834.791 738.955 847.988 714.07 856.57 688.43C859.278 680.324 861.541 672.138 863.63 664.093C869.091 643.056 874.591 621.588 881.739 601.32C893.442 568.554 912.604 541.084 940.797 517.905C954.848 506.354 972.996 495.518 993.95 492.067C1023.82 487.143 1051.81 493.392 1077.75 495.094C1079.8 495.227 1081.84 495.335 1083.89 495.416C1114.88 496.622 1144.82 491.416 1170.65 477.6C1198.18 462.907 1220.78 436.869 1222 406.103" stroke="#D2D2D2" stroke-miterlimit="10"/>
<path d="M246 772.135C264.196 750.488 285.871 731.041 309.939 714.041C320.613 706.499 331.878 699.363 344.526 694.135C369.799 683.693 397.814 681.889 424.787 683.866C432.262 684.413 439.661 685.217 446.91 686.226C477.743 690.608 507.946 698.41 536.686 709.025C565.098 719.537 591.944 733.508 621.894 744.388C652.77 755.605 684.484 767.18 717.572 772.573C745.762 777.142 776.11 776.319 801.484 765.713C806.096 763.789 810.524 761.553 814.73 758.988C840.651 743.179 854.099 717.734 863.025 691.509C865.84 683.224 868.217 674.859 870.439 666.648C876.252 645.174 882.335 623.248 890.261 602.593C903.226 569.161 923.975 541.303 954.057 518.336C968.131 507.591 985.89 497.492 1006.12 493.979C1034.98 488.964 1062.2 493.775 1087.34 494.097C1089.33 494.122 1091.31 494.121 1093.29 494.093C1123.26 493.653 1151.62 486.801 1175.48 472.111C1200.89 456.489 1220.96 430.595 1221 400.817" stroke="#E3E3E3" stroke-miterlimit="10"/>
<path d="M252 781.374C269.752 760.18 291.087 741.256 314.855 724.855C325.393 717.579 336.513 710.735 348.874 705.614C373.56 695.389 400.82 692.918 427.253 694.048C434.593 694.361 441.871 694.92 449.023 695.681C479.421 699.001 509.338 705.727 537.956 715.249C566.243 724.677 593.135 737.476 622.55 747.867C654.288 759.079 686.548 771.077 720.363 776.789C749.136 781.625 780.245 781.001 806.258 770.324C810.989 768.385 815.537 766.123 819.856 763.518C846.482 747.461 860.181 721.454 869.45 694.64C872.371 686.177 874.864 677.63 877.22 669.25C883.384 647.336 890.047 624.949 898.753 603.902C912.982 569.799 935.253 541.468 967.284 518.789C981.363 508.821 998.747 499.485 1018.26 495.908C1046.09 490.801 1072.56 494.177 1096.89 493.119C1098.81 493.035 1100.73 492.926 1102.64 492.788C1131.6 490.701 1158.39 482.202 1180.26 466.635C1203.56 450.08 1221.08 424.327 1219.95 395.532" stroke="#CCCCCC" stroke-miterlimit="10"/>
<path d="M257 791.064C274.306 770.345 295.298 751.965 318.762 736.178C329.163 729.178 340.136 722.633 352.209 717.624C376.306 707.628 402.806 704.49 428.697 704.773C435.9 704.851 443.055 705.164 450.112 705.679C480.069 707.934 509.699 713.575 538.19 721.996C566.347 730.332 593.287 741.935 622.159 751.836C654.758 763.015 687.555 775.44 722.091 781.463C751.444 786.562 783.312 786.137 809.957 775.4C814.808 773.448 819.473 771.162 823.906 768.52C851.231 752.235 865.179 725.692 874.791 698.317C877.819 689.684 880.425 680.967 882.915 672.428C889.429 650.097 896.673 627.273 906.156 605.858C921.647 571.12 945.377 542.254 979.413 519.983C993.487 510.774 1010.5 502.239 1029.29 498.603C1056.1 493.41 1081.8 495.347 1105.33 492.911C1107.18 492.718 1109.04 492.501 1110.88 492.255C1138.82 488.525 1164.03 478.388 1183.91 461.961C1205.09 444.493 1220.08 418.908 1217.77 391.127" stroke="#D4D4D4" stroke-miterlimit="10"/>
<path d="M263 799.873C279.856 779.627 300.501 761.788 323.657 746.615C333.919 739.889 344.745 733.642 356.527 728.745C380.031 718.977 405.766 715.173 431.11 714.614C438.174 714.457 445.206 714.525 452.165 714.791C481.675 715.984 511.01 720.543 539.371 727.864C567.395 735.111 594.377 745.512 622.699 754.932C656.162 766.063 689.482 778.93 724.735 785.264C754.661 790.625 787.281 790.399 814.555 779.603C819.525 777.637 824.306 775.328 828.852 772.649C856.872 756.135 871.068 729.058 881.022 701.12C884.154 692.317 886.874 683.429 889.499 674.731C896.361 651.982 904.186 628.724 914.445 606.939C931.194 571.566 956.323 542.061 992.414 520.297C1006.48 511.816 1023.13 504.11 1041.19 500.413C1066.97 495.133 1091.89 495.633 1114.61 491.821C1116.41 491.521 1118.19 491.194 1119.97 490.839C1146.89 485.468 1170.51 473.696 1188.41 456.41C1207.46 438.03 1219.9 412.611 1216.41 385.842" stroke="#C6C6C6" stroke-miterlimit="10"/>
<path d="M269 809.563C285.42 789.748 305.736 772.414 328.603 757.823C338.734 751.357 349.421 745.395 360.922 740.599C383.85 731.038 408.84 726.523 433.66 725.155C440.591 724.753 447.507 724.586 454.374 724.605C483.461 724.738 512.529 728.223 540.783 734.46C568.694 740.632 595.745 749.843 623.539 758.812C657.899 769.901 691.765 783.254 727.76 789.914C758.285 795.549 791.686 795.523 819.612 784.641C824.705 782.659 829.606 780.32 834.269 777.599C863.009 760.821 877.461 733.149 887.764 704.592C891.005 695.602 893.84 686.522 896.6 677.645C903.817 654.431 912.227 630.686 923.272 608.487C941.293 572.404 967.795 542.082 1006.02 520.896C1020.09 513.097 1036.38 506.23 1053.73 502.467C1078.5 497.091 1102.67 496.155 1124.6 490.958C1126.33 490.547 1128.05 490.112 1129.77 489.648C1155.68 482.624 1177.74 469.192 1193.66 451.01C1210.61 431.676 1220.51 406.37 1215.85 380.556" stroke="#C4C4C4" stroke-miterlimit="10"/>
<path d="M274 818.373C289.963 799.03 309.92 782.235 332.468 768.257C342.456 762.064 352.987 756.401 364.192 751.715C386.515 742.38 410.726 737.207 434.988 734.989C441.776 734.355 448.567 733.941 455.332 733.713C483.957 732.785 512.715 735.19 540.824 740.329C568.585 745.413 595.668 753.407 622.895 761.913C658.113 772.916 692.472 786.749 729.163 793.72C760.247 799.616 794.38 799.79 822.919 788.848C828.128 786.852 833.143 784.49 837.917 781.73C867.336 764.723 882.028 736.516 892.665 707.397C896.011 698.237 898.958 688.985 901.85 679.95C909.412 656.319 918.397 632.136 930.21 609.568C949.478 572.849 977.278 541.65 1017.62 521.207C1031.69 514.08 1047.59 508.098 1064.2 504.274C1087.93 498.81 1111.32 496.44 1132.43 489.868C1134.09 489.349 1135.75 488.805 1137.4 488.232C1162.28 479.568 1182.73 464.501 1196.66 445.462C1211.48 425.216 1218.84 400.075 1212.99 375.271" stroke="#DEDEDE" stroke-miterlimit="10"/>
<path d="M280 828.944C295.515 810.035 315.129 793.748 337.372 780.354C347.223 774.422 357.607 769.045 368.523 764.462C390.255 755.336 413.703 749.493 437.425 746.422C444.075 745.553 450.743 744.892 457.413 744.416C485.596 742.425 514.065 743.752 542.046 747.804C569.676 751.809 596.81 758.594 623.488 766.663C659.592 777.582 694.46 791.943 731.869 799.239C763.529 805.41 798.42 805.781 827.59 794.757C832.918 792.745 838.051 790.353 842.937 787.551C873.054 770.279 887.994 741.481 898.974 711.742C902.424 702.394 905.486 692.952 908.51 683.741C916.423 659.645 925.988 634.976 938.578 611.994C959.106 574.566 988.188 542.299 1030.71 522.69C1044.8 516.192 1060.3 511.109 1076.19 507.219C1098.89 501.658 1121.51 497.847 1141.82 489.887C1143.42 489.258 1145.01 488.605 1146.59 487.923C1170.45 477.601 1189.33 460.871 1201.27 440.935C1213.97 419.735 1218.78 394.709 1211.77 370.866" stroke="#C9C9C9" stroke-miterlimit="10"/>
<path d="M286 837.753C321.032 794.909 378.769 766.59 439.947 756.253C501.126 745.916 565.367 752.594 624.268 769.766C661.284 780.558 696.673 795.441 734.823 803.048C772.973 810.657 815.893 810.064 848.268 791.686C888.786 768.687 902.3 725.253 915.521 686.047C937.263 621.575 972.033 553.018 1044.21 523.001C1080.17 508.05 1122.24 504.305 1156.26 486.507C1203.42 461.832 1226.96 409.893 1211.05 365.581" stroke="#D6D6D6" stroke-miterlimit="10"/>
<path d="M-391 -97.2896C-360.868 -121.222 -329.005 -143.654 -295.641 -164.427C-280.809 -173.662 -265.271 -182.734 -247.406 -186.86C-201.735 -197.404 -155.226 -173.352 -120.269 -146.791C-88.0734 -122.327 -59.4011 -94.6748 -35.0584 -64.61C-10.934 -34.8163 9.41078 -2.20448 41.2418 22.1068C73.0728 46.4167 120.941 60.8958 160.22 45.8432C183.59 36.8882 200.491 18.6955 209.768 -1.22298C219.044 -21.1415 221.439 -42.7936 221.986 -64.1421C222.613 -88.585 221.307 -114.381 235.398 -135.856C249.983 -158.085 281.055 -172.086 311.476 -170.137C354.756 -167.365 386.67 -137.164 418.188 -112.406C458.229 -80.9531 507.024 -54.6514 561.749 -48.9982C616.474 -43.345 677.268 -62.4984 703 -102.956" stroke="#D6D6D6" stroke-miterlimit="10"/>
<path d="M-387 -87.8053C-357.408 -111.347 -326.002 -133.305 -293.07 -153.524C-278.433 -162.511 -263.104 -171.315 -245.546 -175.377C-210.279 -183.533 -174.471 -171.217 -143.903 -153.262C-135.572 -148.374 -127.627 -143.067 -120.189 -137.644C-88.1961 -114.297 -59.5756 -87.7584 -35.1207 -58.7964C-10.889 -30.0977 9.55109 1.54336 41.1587 25.0937C58.8788 38.2964 80.9986 48.8551 104.025 53.6504C124.085 57.8202 144.962 57.5296 163.909 50.5426C167.294 49.2956 170.551 47.8583 173.68 46.2464C192.954 36.317 206.944 19.9531 215.388 2.29784C218.099 -3.37311 220.291 -9.17827 222.079 -15.0564C226.749 -30.413 228.782 -46.3652 230.027 -62.0619C232.038 -86.9609 233.055 -112.621 248.267 -133.867C263.375 -154.968 293.218 -168.624 322.94 -166.845C365.228 -164.316 396.698 -135.653 427.722 -112.38C430.167 -110.545 432.645 -108.731 435.153 -106.94C473.073 -79.8736 517.985 -58.2674 567.547 -54.1223C620.385 -49.6997 678.643 -69.0842 703 -108.73" stroke="#C9C9C9" stroke-miterlimit="10"/>
<path d="M-384 -77.4454C-354.95 -100.593 -323.997 -122.073 -291.497 -141.738C-277.053 -150.479 -261.935 -159.01 -244.685 -163.008C-210.048 -171.032 -174.847 -159.487 -144.629 -142.457C-136.382 -137.82 -128.504 -132.777 -121.107 -127.613C-89.3215 -105.387 -60.7511 -79.9631 -36.1825 -52.1096C-11.8449 -24.5088 8.71718 6.13722 40.0749 28.9449C58.5284 42.3669 81.199 53.3117 104.864 58.5242C125.434 63.0412 147.013 63.0607 166.597 56.1029C170.101 54.8603 173.482 53.4159 176.73 51.7826C196.744 41.7248 211.1 24.8564 220.007 6.68688C222.86 0.860894 225.203 -5.10055 227.159 -11.1193C232.268 -26.8441 234.971 -43.1511 237.065 -59.1039C240.462 -84.4553 243.754 -109.95 260.135 -130.992C275.688 -150.969 304.379 -164.27 333.402 -162.661C374.699 -160.375 405.724 -133.251 436.255 -111.465C438.662 -109.747 441.099 -108.051 443.564 -106.377C480.837 -81.0936 524.551 -61.3507 572.344 -58.3615C623.296 -55.1691 679.017 -74.7818 702 -113.613" stroke="#DEDEDE" stroke-miterlimit="10"/>
<path d="M-380 -67.0857C-351.491 -89.836 -320.991 -110.837 -288.923 -129.943C-274.674 -138.433 -259.764 -146.694 -242.824 -150.626C-208.817 -158.518 -174.224 -147.744 -144.354 -131.641C-136.192 -127.257 -128.38 -122.479 -121.024 -117.574C-89.4436 -96.4705 -60.9234 -72.166 -36.2427 -45.4235C-11.7977 -18.9245 8.90831 10.7051 39.9924 32.785C59.1887 46.4199 82.4005 57.7521 106.706 63.3804C127.786 68.2434 150.066 68.5714 170.288 61.6453C173.912 60.4074 177.414 58.9548 180.782 57.3017C201.537 47.1163 216.256 29.7483 225.627 11.0683C228.623 5.08846 231.116 -1.02803 233.24 -7.18615C238.789 -23.2772 242.16 -39.9345 245.103 -56.14C249.883 -81.9388 255.401 -107.242 273.001 -128.098C288.922 -146.964 316.54 -159.894 344.862 -158.457C385.17 -156.413 415.75 -130.834 445.786 -110.536C448.154 -108.936 450.549 -107.358 452.973 -105.802C489.6 -82.302 532.115 -64.4238 578.141 -62.591C627.207 -60.6294 680.392 -80.4654 702 -118.474" stroke="#C4C4C4" stroke-miterlimit="10"/>
<path d="M-377 -57.1407C-349.031 -79.5624 -318.987 -100.146 -287.35 -118.751C-273.294 -127.018 -258.594 -135.032 -241.96 -138.91C-208.585 -146.692 -174.598 -136.66 -145.077 -121.436C-136.999 -117.292 -129.255 -112.763 -121.94 -108.105C-90.5635 -88.0618 -62.095 -64.8038 -37.3007 -39.0914C-12.7499 -13.6178 8.12357 15.0683 38.9122 36.5022C58.8589 50.3879 82.6038 62.1455 107.547 68.2076C129.139 73.432 152.119 74.07 172.978 67.1546C176.723 65.9163 180.345 64.4536 183.834 62.7757C205.328 52.4312 220.413 34.5098 230.248 15.2627C233.386 9.10925 236.03 2.82011 238.322 -3.49642C244.309 -20.0034 248.352 -37.0611 252.142 -53.5707C258.308 -79.8964 265.997 -105.071 284.866 -125.818C301.079 -143.644 327.7 -156.225 355.322 -154.954C394.639 -153.148 424.774 -129.036 454.317 -110.168C456.647 -108.68 459.001 -107.215 461.381 -105.773C497.361 -83.9895 538.676 -67.9248 582.937 -67.245C630.117 -66.5104 680.766 -86.6305 701 -123.932" stroke="#C6C6C6" stroke-miterlimit="10"/>
<path d="M-373 -47.5752C-345.546 -69.5787 -315.928 -89.662 -284.694 -107.692C-270.82 -115.703 -256.315 -123.437 -239.974 -127.247C-207.197 -134.887 -173.787 -125.638 -144.586 -111.354C-136.587 -107.467 -128.901 -103.206 -121.622 -98.8126C-90.4226 -79.9109 -61.9777 -57.7927 -37.0482 -33.2162C-12.3671 -8.86635 8.71221 18.743 39.215 39.4633C59.939 53.5396 84.2318 65.6813 109.837 72.1547C131.959 77.7188 155.662 78.6659 177.177 71.7886C181.046 70.5562 184.792 69.088 188.405 67.3905C210.661 56.9294 226.124 38.5253 236.431 18.7847C239.715 12.4832 242.514 6.045 244.974 -0.404951C251.406 -17.2613 256.081 -34.6622 260.766 -51.4014C268.256 -78.1626 278.142 -103.088 298.352 -123.651C314.803 -140.387 340.518 -152.547 367.466 -151.449C405.828 -149.889 435.547 -127.342 464.623 -109.98C466.916 -108.612 469.233 -107.265 471.572 -105.943C506.941 -85.9635 547.093 -71.7778 589.626 -72.2533C634.964 -72.7484 683.123 -93.074 702 -129.52" stroke="#D4D4D4" stroke-miterlimit="10"/>
<path d="M-370 -36.7314C-343.088 -58.4001 -313.924 -78.0594 -283.121 -95.5826C-269.44 -103.367 -255.145 -110.851 -239.114 -114.606C-206.967 -122.136 -174.164 -113.632 -145.312 -100.236C-137.399 -96.5893 -129.778 -92.5809 -122.54 -88.4355C-91.5456 -70.6041 -63.1509 -49.5425 -38.1093 -26.0067C-13.3207 -2.6903 7.96078 23.9307 38.1318 44.0287C59.6224 58.344 84.4345 70.9227 110.679 77.8309C133.311 83.7573 157.716 85.016 179.868 78.1508C183.858 76.9183 187.726 75.4403 191.457 73.7168C214.451 63.0979 230.281 44.141 241.051 23.8328C244.478 17.3594 247.427 10.7475 250.055 4.13959C256.926 -13.1317 262.268 -30.9343 267.806 -47.9731C276.675 -75.2627 288.633 -100.044 310.221 -120.499C326.828 -136.233 351.682 -147.993 377.93 -147.062C415.3 -145.741 444.574 -124.674 473.157 -108.753C475.411 -107.498 477.686 -106.266 479.983 -105.058C514.705 -86.8086 553.658 -74.448 594.424 -76.0839C637.876 -77.8113 683.499 -98.4198 701 -134.147" stroke="#CCCCCC" stroke-miterlimit="10"/>
<path d="M-366 -27.19C-339.628 -48.4403 -310.919 -67.5986 -280.548 -84.5448C-267.062 -92.0723 -252.975 -99.2765 -237.251 -102.963C-205.735 -110.352 -173.539 -102.629 -145.036 -90.1732C-137.207 -86.7829 -129.652 -83.0419 -122.457 -79.1615C-91.6664 -62.4694 -63.3234 -42.5487 -38.1681 -20.1474C-13.2737 2.04269 8.22717 27.5592 38.0508 46.9716C60.3156 61.4635 85.6375 74.4368 112.52 81.7518C135.664 88.0176 160.769 89.583 183.558 82.7568C187.669 81.5303 191.658 80.0469 195.509 78.3042C219.245 67.5689 235.438 48.133 246.672 27.3363C250.241 20.716 253.341 13.9563 256.137 7.21611C263.446 -10.4014 269.457 -28.5391 275.844 -45.8099C286.094 -73.5202 300.068 -98.0708 323.088 -118.328C339.789 -133.024 363.844 -144.312 389.391 -143.554C425.77 -142.476 454.599 -122.973 482.689 -108.557C484.904 -107.421 487.139 -106.307 489.393 -105.219C523.468 -88.7706 561.223 -78.2869 600.221 -81.075C641.787 -84.03 684.873 -104.838 701 -139.707" stroke="#E3E3E3" stroke-miterlimit="10"/>
<path d="M-362 -16.8482C-336.168 -37.6895 -307.915 -56.3566 -277.975 -72.7364C-264.682 -80.0111 -250.804 -86.9396 -235.389 -90.5587C-204.502 -97.81 -172.943 -90.8139 -144.76 -79.3381C-137.024 -76.1889 -129.527 -72.726 -122.373 -69.1082C-91.7889 -53.5459 -63.496 -34.7525 -38.2285 -13.4725C-13.2266 7.60693 8.50619 32.0191 37.9684 50.7683C61.0151 65.4336 86.839 78.8153 114.36 86.5404C138.014 93.1473 163.82 95.0193 187.247 88.2289C191.476 87.0078 195.588 85.5172 199.559 83.7558C224.035 72.901 240.594 52.9788 252.29 31.6846C256.002 24.915 259.252 18.0048 262.217 11.1284C269.965 -6.84354 276.644 -25.3193 283.882 -42.8318C295.515 -70.975 311.445 -95.3221 335.952 -115.376C352.692 -129.072 376.001 -139.867 400.849 -139.278C436.238 -138.443 464.622 -120.491 492.219 -107.567C494.395 -106.549 496.589 -105.553 498.799 -104.582C532.23 -89.9234 568.785 -81.3039 606.016 -85.2433C645.695 -89.4235 686.247 -110.443 701 -144.471" stroke="#D2D2D2" stroke-miterlimit="10"/>
<path d="M-359 -6.75292C-333.71 -27.2304 -305.909 -45.447 -276.401 -61.2961C-263.303 -68.3338 -249.634 -75.0016 -234.528 -78.5615C-204.27 -85.6918 -173.32 -79.4502 -145.484 -68.885C-137.834 -65.9805 -130.403 -62.7776 -123.29 -59.4131C-92.9103 -44.9467 -64.6692 -27.2395 -39.2882 -7.03437C-14.179 12.9779 7.79973 36.326 36.8879 54.4658C60.7241 69.331 87.0401 83.1538 115.203 91.3057C139.367 98.2666 165.874 100.45 189.936 93.6798C194.286 92.4602 198.518 90.9616 202.61 89.1778C227.826 78.1787 244.749 57.7273 256.91 35.8908C260.764 28.9559 264.165 21.8817 267.295 14.8556C275.483 -3.50831 282.831 -22.3648 290.918 -40.1553C303.935 -68.7912 321.765 -93.0163 347.815 -112.881C364.544 -125.638 387.159 -135.932 411.306 -135.511C445.704 -134.918 473.644 -118.477 500.747 -107.019C502.884 -106.116 505.037 -105.236 507.206 -104.381C539.99 -91.48 575.345 -84.7067 610.81 -89.8055C648.605 -95.2184 686.62 -116.493 700 -149.756" stroke="#D4D4D4" stroke-miterlimit="10"/>
<path d="M-355 3.34915C-330.25 -16.7616 -302.905 -34.5249 -273.827 -49.8391C-260.922 -56.6388 -247.464 -63.0446 -232.665 -66.5448C-203.038 -73.5518 -172.693 -68.0693 -145.207 -58.4163C-137.642 -55.7585 -130.278 -52.8151 -123.206 -49.7061C-93.0319 -36.3389 -64.8393 -19.7219 -39.3463 -0.594497C-14.1314 18.3478 8.10426 40.6155 36.8075 58.1558C61.441 73.2066 88.2429 87.4801 117.042 96.0599C141.716 103.376 168.924 105.871 193.623 99.1219C198.094 97.9052 202.448 96.3977 206.659 94.5902C232.614 83.4478 249.903 62.4685 262.525 40.0912C266.523 32.9929 270.074 25.7538 273.374 18.5786C281.999 -0.177186 290.019 -19.4116 298.953 -37.4787C313.354 -66.6035 333.029 -90.7414 360.676 -110.38C377.351 -122.225 399.315 -131.985 422.762 -131.735C456.17 -131.384 483.664 -116.458 510.275 -106.468C512.374 -105.68 514.486 -104.917 516.61 -104.179C548.748 -93.0392 582.906 -88.1149 616.604 -94.3746C652.513 -101.022 687.995 -122.551 700 -155.042" stroke="#D5D5D5" stroke-miterlimit="10"/>
<path d="M-352 13.4626C-327.79 -6.27873 -300.899 -23.5875 -272.255 -38.3645C-259.544 -44.9249 -246.293 -51.0678 -231.803 -54.5092C-202.806 -61.3932 -173.065 -56.6716 -145.93 -47.9317C-138.45 -45.5226 -131.152 -42.8382 -124.121 -39.9853C-94.1516 -27.7193 -66.0108 -12.1971 -40.4058 5.84772C-15.0837 23.715 7.41823 44.888 35.7271 61.8366C61.1671 77.0678 88.4453 91.8004 117.884 100.805C143.069 108.476 170.976 111.282 196.312 104.556C200.903 103.342 205.378 101.826 209.709 99.9947C236.405 88.7113 254.058 67.2042 267.143 44.2877C271.283 37.0265 274.984 29.623 278.45 22.2991C287.514 3.15411 296.204 -16.4567 305.984 -34.8004C321.773 -64.4118 343.233 -88.5055 372.532 -107.868C389.117 -118.829 410.464 -128.023 433.213 -127.943C465.63 -127.833 492.68 -114.428 518.798 -105.91C520.857 -105.239 522.93 -104.591 525.011 -103.97C556.505 -94.5961 589.463 -91.5254 621.397 -98.9471C655.421 -106.831 688.368 -128.612 699 -160.327" stroke="#DEDEDE" stroke-miterlimit="10"/>
<path d="M-348 23.5781C-324.332 4.20808 -297.894 -12.6429 -269.68 -26.8821C-257.163 -33.2026 -244.122 -39.0816 -229.939 -42.4625C-201.572 -49.2217 -172.437 -45.2636 -145.651 -37.4388C-138.255 -35.2776 -131.024 -32.8539 -124.036 -30.2578C-94.2726 -19.0965 -66.1803 -4.67055 -40.4634 12.2888C-15.0339 29.0797 7.7437 49.1431 35.6474 65.5083C61.9017 80.9072 89.6499 96.1102 119.725 105.541C145.42 113.567 174.027 116.684 200 109.981C204.712 108.769 209.307 107.245 213.759 105.391C241.193 93.9659 259.212 71.9346 272.759 48.4785C277.041 41.0546 280.893 33.487 284.527 26.0148C294.03 6.4803 303.434 -13.4878 314.017 -32.1239C331.26 -62.1916 354.385 -86.3241 385.387 -105.353C401.854 -115.461 422.614 -124.055 444.663 -124.145C476.092 -124.278 502.697 -112.395 528.321 -105.351C530.343 -104.796 532.372 -104.266 534.412 -103.761C565.259 -96.1547 597.02 -94.9416 627.187 -103.525C659.328 -112.645 689.742 -134.678 699 -165.613" stroke="#CDCDCD" stroke-miterlimit="10"/>
<path d="M-345 33.0778C-321.871 14.1388 -295.887 -2.20265 -268.106 -15.8607C-255.783 -21.9219 -242.951 -27.5193 -229.076 -30.8292C-201.337 -37.444 -172.807 -34.2617 -146.373 -27.3734C-139.061 -25.4676 -131.897 -23.3105 -124.951 -20.9788C-95.3913 -10.955 -67.3509 2.33181 -41.5222 18.1549C-15.984 33.8203 7.07697 52.7045 34.5692 68.4468C61.6483 83.9533 89.8521 99.5875 120.568 109.415C146.772 117.77 176.08 121.188 202.688 114.529C207.519 113.324 212.235 111.796 216.808 109.924C244.982 98.3929 263.363 75.9057 277.373 51.9868C281.797 44.4237 285.802 36.716 289.602 29.1191C299.542 9.25788 309.615 -11.0228 321.048 -29.8757C339.674 -60.3338 364.484 -84.4703 397.24 -103.039C413.565 -112.294 433.762 -120.231 455.111 -120.491C485.55 -120.866 511.712 -110.538 536.842 -104.989C538.824 -104.552 540.814 -104.14 542.811 -103.754C573.013 -97.9368 603.574 -98.579 631.978 -108.297C662.234 -118.624 690.116 -140.838 698 -170.898" stroke="#D2D2D2" stroke-miterlimit="10"/>
<path d="M-341 43.1794C-318.389 24.6122 -292.834 8.72737 -265.459 -4.39155C-253.317 -10.2126 -240.682 -15.5462 -227.101 -18.7956C-199.966 -25.2854 -172.012 -22.8701 -145.905 -16.8926C-138.67 -15.236 -131.566 -13.3382 -124.654 -11.2619C-95.2711 -2.34126 -67.2555 9.84831 -41.2885 24.5861C-15.6217 39.174 7.75291 56.9279 34.8519 72.1075C62.7889 87.7563 91.471 103.884 122.854 114.136C149.595 122.846 179.63 126.575 206.901 119.939C211.856 118.737 216.7 117.199 221.394 115.305C250.334 103.635 269.099 80.6214 283.587 56.1654C288.159 48.4387 292.317 40.5686 296.288 32.8237C306.677 12.5738 317.43 -8.07892 329.721 -27.2079C349.749 -58.1485 376.22 -82.4416 410.812 -100.53C426.996 -108.994 446.663 -116.271 467.334 -116.698C496.812 -117.316 522.554 -108.51 547.214 -104.434C549.161 -104.114 551.112 -103.818 553.067 -103.549C582.654 -99.4995 612.045 -101.997 638.708 -112.876C667.109 -124.439 692.482 -146.904 699 -176.184" stroke="#D8D8D8" stroke-miterlimit="10"/>
<path d="M-337 53.2849C-314.929 35.091 -289.83 19.6658 -262.885 7.08626C-250.938 1.50591 -238.511 -3.56323 -225.239 -6.75181C-198.734 -13.1172 -171.383 -11.4688 -145.626 -6.40361C-138.475 -4.99777 -131.438 -3.35847 -124.568 -1.53922C-95.3908 6.2751 -67.4238 17.3667 -41.3447 31.0169C-15.5706 44.525 8.09857 61.1396 34.7734 75.7627C63.5531 91.5413 92.677 108.173 124.697 118.851C151.947 127.913 182.684 131.955 210.591 125.343C215.667 124.143 220.631 122.598 225.446 120.682C255.126 108.871 274.256 85.335 289.205 60.3415C293.918 52.4528 298.228 44.4181 302.367 36.5269C313.195 15.8904 324.617 -5.13599 337.756 -24.5388C359.168 -55.9603 387.232 -80.4987 423.67 -98.017C439.687 -105.717 458.817 -112.301 478.787 -112.9C507.274 -113.76 532.572 -106.478 556.74 -103.878C558.646 -103.673 560.556 -103.494 562.469 -103.343C591.409 -101.063 619.603 -105.417 644.501 -117.459C671.017 -130.259 693.856 -152.972 699 -181.469" stroke="#DEDEDE" stroke-miterlimit="10"/>
<path d="M-334 64.274C-312.471 46.4551 -287.824 31.4909 -261.311 19.452C-249.557 14.1129 -237.341 9.30752 -224.377 6.18133C-198.502 -0.0592887 -171.753 0.818815 -146.349 4.97314C-139.283 6.12915 -132.312 7.50827 -125.484 9.07006C-96.5108 15.7765 -68.5957 25.7683 -42.4032 38.3291C-16.5236 50.7568 7.44951 66.2194 33.6922 80.2951C63.3238 96.187 92.8783 113.337 125.537 124.44C153.297 133.856 184.734 138.209 213.278 131.621C218.474 130.425 223.559 128.871 228.495 126.932C258.914 114.981 278.409 90.9223 293.82 65.3935C298.675 57.3432 303.136 49.1455 307.443 41.1069C318.708 20.0835 330.8 -1.31445 344.787 -20.9914C367.581 -52.8925 397.202 -77.7754 435.526 -94.6198C451.372 -101.585 469.965 -107.445 489.237 -108.214C516.734 -109.316 541.587 -103.561 565.262 -102.439C567.131 -102.352 568.999 -102.289 570.87 -102.254C599.164 -101.745 626.159 -107.958 649.292 -121.164C673.923 -135.2 694.228 -158.161 698 -185.874" stroke="#E3E3E3" stroke-miterlimit="10"/>
<path d="M-330 74.3812C-309.011 56.9382 -284.819 42.4361 -258.736 30.9388C-247.177 25.8415 -235.168 21.3016 -222.513 18.2367C-197.266 12.1226 -171.122 12.227 -146.071 15.4707C-139.088 16.3753 -132.185 17.4953 -125.397 18.8006C-96.6287 24.3978 -68.7652 33.2884 -42.4609 44.7595C-16.474 56.1054 7.80456 70.4052 33.6123 83.9401C64.1051 99.9316 94.0807 117.613 127.377 129.142C155.648 138.912 187.784 143.578 216.965 137.013C222.282 135.82 227.487 134.258 232.543 132.296C263.702 120.206 283.561 95.624 299.435 69.5607C304.432 61.3489 309.044 52.9883 313.518 44.8026C325.222 23.3927 337.984 1.62516 352.818 -18.3241C376.996 -50.7039 408.14 -76.0415 448.38 -92.1009C464.061 -98.3586 482.115 -103.466 500.687 -104.406C527.194 -105.752 551.603 -101.525 574.784 -101.88C576.614 -101.909 578.443 -101.964 580.269 -102.046C607.919 -103.311 633.716 -111.384 655.082 -125.752C677.83 -141.027 695.602 -164.234 698 -191.159" stroke="#E9E9E9" stroke-miterlimit="10"/>
<path d="M-327 83.7707C-306.551 66.7488 -282.812 52.7447 -257.162 41.8197C-245.795 36.9771 -233.997 32.7142 -221.649 29.7185C-197.032 23.7454 -171.486 23.0408 -146.791 25.4048C-139.891 26.0456 -133.057 26.9143 -126.31 27.9589C-97.7476 32.4355 -69.933 40.202 -43.5169 50.554C-17.423 60.79 7.16386 73.8837 32.5349 86.851C63.8979 102.882 94.285 121.065 128.219 132.988C156.998 143.086 189.835 148.05 219.652 141.526C225.089 140.338 230.415 138.772 235.591 136.793C267.489 124.595 287.711 99.5565 304.05 73.028C309.19 64.6753 313.952 56.1754 318.594 47.8644C330.736 26.1263 344.166 4.04441 359.849 -16.1255C385.408 -48.8981 418.052 -74.7415 460.231 -89.8553C475.757 -95.4181 493.262 -99.7331 511.134 -100.84C536.651 -102.425 560.616 -99.7344 583.304 -101.566C585.094 -101.71 586.882 -101.882 588.668 -102.081C615.671 -105.114 640.269 -115.021 659.871 -130.513C680.736 -146.984 695.974 -170.376 697 -196.445" stroke="#EEEEEE" stroke-miterlimit="10"/>
<path d="M-323 93.8648C-303.092 77.2174 -279.807 63.6764 -254.587 53.2925C-243.415 48.6916 -231.825 44.6939 -219.785 41.7594C-195.797 35.9128 -170.858 34.4416 -146.511 35.8893C-139.697 36.2802 -132.928 36.8887 -126.223 37.6758C-97.8646 41.0441 -70.1017 47.7104 -43.5739 56.9723C-17.3729 66.126 7.52554 78.0448 32.4554 90.4874C64.7011 106.581 95.4871 125.333 130.058 137.68C159.348 148.132 192.884 153.407 223.335 146.907C228.893 145.723 234.341 144.149 239.636 142.147C272.273 129.81 292.86 104.251 309.66 77.1874C314.942 68.6734 319.854 60.0109 324.664 51.553C337.245 29.4289 351.343 6.97649 367.872 -13.4654C394.813 -46.716 428.945 -73.2586 473.074 -87.343C488.46 -92.2528 505.4 -95.7619 522.572 -97.0402C547.1 -98.8683 570.62 -97.7034 592.816 -101.012C594.568 -101.274 596.315 -101.562 598.056 -101.878C624.414 -106.683 647.815 -118.449 665.652 -135.103C684.633 -152.81 697.34 -176.449 696.993 -201.73" stroke="#F4F4F4" stroke-miterlimit="10"/>
<path d="M-320 103.962C-300.635 87.6916 -277.808 74.6132 -253.024 64.7728C-242.047 60.4137 -230.668 56.6817 -218.938 53.8087C-195.585 48.0874 -171.256 45.8505 -147.262 46.3811C-140.533 46.5219 -133.832 46.8699 -127.17 47.3992C-99.0224 49.6582 -71.3147 55.2243 -44.6784 63.3936C-18.3767 71.4651 6.83174 82.1972 31.3145 94.122C64.4461 110.26 95.6158 129.597 130.819 142.369C160.613 153.172 194.843 158.759 225.924 152.285C231.6 151.104 237.168 149.52 242.583 147.497C275.952 135.022 296.9 108.941 314.159 81.3434C319.583 72.6683 324.644 63.8433 329.62 55.2386C342.636 32.7304 357.402 9.90799 374.775 -10.8066C403.094 -44.5357 438.702 -71.9101 484.776 -84.8282C500.043 -89.109 516.39 -91.7878 532.862 -93.2347C556.396 -95.3047 579.468 -95.6684 601.167 -100.456C602.879 -100.834 604.585 -101.24 606.285 -101.674C631.994 -108.252 654.193 -121.876 670.262 -139.693C687.358 -158.636 697.53 -182.522 695.812 -207.016" stroke="#F9F9F9" stroke-miterlimit="10"/>
<path d="M-316 114.06C-272.234 77.1293 -209.301 57.8952 -146.895 56.8728C-84.4888 55.8505 -22.7708 72.0372 31.4137 97.751C65.465 113.912 97.0288 133.855 132.887 147.052C168.746 160.248 211.08 166.086 246.912 152.842C291.756 136.265 314.491 95.5342 336.018 58.9214C371.42 -1.2874 420.521 -63.5657 498.027 -82.3122C536.632 -91.6489 578.825 -89.0409 616.144 -101.469C667.884 -118.701 702.322 -166.305 696.323 -212.301" stroke="white" stroke-miterlimit="10"/>
<path d="M-42.4369 720.582C-49.0498 672.083 3.69987 631.103 56.9006 623.566C110.1 616.03 163.467 631.579 216.179 641.545C268.891 651.511 328.199 654.806 372.231 626.679C428.525 590.721 441.548 515.077 499.46 481.304C544.599 454.979 603.355 462.856 649.602 482.44C675.75 493.513 697.982 512.141 722.976 525.116C836.32 583.959 843.963 704.211 940.258 722.142C1044.52 741.559 1101.1 695.42 1120.78 663.421C1145.98 622.432 1188.01 516.076 1085.02 442.165C1043.19 412.14 1001.88 380.139 971.105 340.603C925.025 281.412 925.338 190.919 984.263 142.007C1024.65 108.486 1086.68 96.2294 1114.11 53.25C1132.55 24.3627 1130.03 -12.88 1114.18 -43.0068C1098.33 -73.1336 1070.72 -96.9589 1040.72 -116.281" stroke="#E3E3E3" stroke-miterlimit="10"/>
<path d="M-39.7222 723.233C-44.2891 673.31 8.19166 630.176 62.9991 621.594C116.494 613.217 170.76 628.654 223.497 639.664C275.612 650.544 333.471 655.478 377.379 629.895C433.464 597.158 449.237 525.309 507.099 491.958C553.191 465.532 611.036 470.443 658.402 487.574C685.612 497.415 709.724 514.985 735.909 528.154C846.912 583.985 856.041 700.405 950.275 718.101C1051.63 737.098 1107.92 693.406 1128.37 661.898C1154.29 621.971 1194.41 519.43 1097.06 446.317C1056.93 416.174 1017.13 383.537 986.837 344.219C942.1 286.395 941.693 199.066 997.329 150.55C1035.82 116.983 1095.64 103.307 1122.97 60.855C1141.73 31.8334 1140.57 -4.90092 1126.72 -35.2726C1112.74 -65.9269 1087.23 -91.122 1058.4 -111.877" stroke="#DEDEDE" stroke-miterlimit="10"/>
<path d="M-37.9125 725.876C-40.4295 674.581 11.7309 629.355 68.0975 619.72C121.84 610.534 176.953 625.809 229.67 637.862C281.139 649.631 337.497 656.213 381.241 633.203C437.069 603.723 455.491 535.628 513.331 502.853C560.269 476.256 617.27 478.262 665.655 492.954C693.935 501.541 719.858 518.049 747.222 531.393C855.678 584.286 866.389 696.614 958.475 714.058C1056.83 732.616 1112.76 691.416 1133.99 660.432C1160.58 621.606 1198.77 522.928 1107.15 450.755C1068.74 420.505 1030.5 387.29 1000.72 348.231C957.363 291.834 956.236 207.737 1008.53 159.694C1045.1 126.098 1102.66 111.035 1129.85 69.1568C1148.91 40.0319 1149.13 3.81944 1137.28 -26.7378C1125.18 -57.9128 1101.8 -84.4256 1074.15 -106.591" stroke="#DEDEDE" stroke-miterlimit="10"/>
<path d="M-34.9968 727.638C-35.4667 674.973 16.4118 627.672 74.3797 616.97C128.408 606.993 184.407 622.075 237.142 635.183C288.002 647.825 342.902 656.07 386.513 635.628C442.124 609.403 463.259 545.128 521.069 512.859C568.925 486.147 625.137 485.154 674.527 497.448C703.924 504.765 731.638 520.236 760.212 533.749C866.109 583.832 878.5 691.946 968.51 709.135C1063.94 727.255 1119.55 688.545 1141.57 658.086C1168.84 620.359 1205.16 525.465 1119.17 454.312C1082.45 423.928 1045.87 390.087 1016.46 351.361C974.629 296.284 972.604 215.49 1021.6 167.955C1056.29 134.311 1111.5 117.822 1138.69 76.5765C1157.99 47.3058 1159.69 11.6336 1149.8 -19.0874C1139.59 -50.808 1118.3 -78.6099 1091.82 -102.187" stroke="#D5D0D0" stroke-miterlimit="10"/>
<path d="M-33 730.281C-31.4221 676.191 20.1717 626.779 79.7334 614.98C134.046 604.221 190.922 619.097 243.672 633.285C293.918 646.799 347.357 656.731 390.831 638.836C446.219 615.838 470.073 555.324 527.843 523.519C576.617 496.667 632.071 492.629 682.421 502.579C712.959 508.613 742.426 523.092 772.219 536.78C875.468 584.215 889.62 688.119 977.543 705.073C1070.04 722.771 1125.31 686.51 1148.13 656.545C1176.06 619.873 1210.55 528.586 1130.19 458.458C1095.14 427.879 1060.15 393.457 1031.2 354.972C990.768 301.236 987.964 223.547 1033.67 176.502C1066.46 142.752 1119.41 124.886 1146.52 84.1851C1166.11 54.7688 1169.24 19.5448 1161.3 -11.3484C1153 -43.6728 1133.79 -72.7709 1108.48 -97.7822" stroke="#C6C6C6" stroke-miterlimit="10"/>
<path d="M-30 732.924C-26.3757 677.465 24.9337 626.009 86.0882 613.113C140.686 601.6 198.436 616.223 251.202 631.49C300.834 645.851 352.842 657.549 396.145 642.142C451.354 622.499 477.887 565.715 535.61 534.402C585.304 507.443 640.029 500.312 691.307 507.955C723.001 512.677 754.192 526.18 785.214 540.018C885.742 584.861 901.723 684.337 987.558 701.038C1077.12 718.298 1132.04 684.523 1155.67 655.086C1184.25 619.503 1216.94 531.834 1142.18 462.895C1108.8 432.124 1075.41 397.19 1046.91 358.983C1007.88 306.648 1004.29 232.106 1046.72 185.64C1077.62 151.795 1128.31 132.598 1155.32 92.481C1175.2 62.9503 1179.79 28.1921 1173.78 -2.81907C1167.41 -35.7344 1150.26 -66.0753 1126.12 -92.4966" stroke="#D4D4D4" stroke-miterlimit="10"/>
<path d="M-28 735.566C-22.3276 678.679 28.6976 625.14 91.4401 611.118C146.324 598.852 204.945 613.211 257.723 629.585C306.741 644.793 357.279 658.221 400.445 645.352C455.428 628.958 484.691 575.938 542.36 545.075C592.978 517.986 646.986 507.706 699.17 513.091C732.037 516.482 764.922 529.06 797.185 543.053C894.929 585.443 912.802 680.505 996.544 696.968C1083.17 713.806 1137.72 682.478 1162.18 653.541C1191.38 619.006 1222.33 534.772 1153.14 467.045C1121.43 436.014 1089.64 400.567 1061.61 362.596C1023.97 311.612 1019.58 240.093 1058.74 194.196C1087.75 160.195 1136.18 139.673 1163.09 100.097C1183.28 70.4215 1189.34 36.0735 1185.24 4.92678C1180.81 -28.632 1165.7 -60.2325 1142.74 -88.0923" stroke="#CCCCCC" stroke-miterlimit="10"/>
<path d="M-26 737.328C-18.2796 679.073 32.4611 623.522 96.788 608.372C151.958 595.38 211.449 609.435 264.236 626.911C312.642 642.938 361.703 658.092 404.733 647.776C459.486 634.649 491.482 585.455 549.091 555.071C600.634 527.885 653.938 514.416 707.009 517.582C741.055 519.612 775.618 531.289 809.131 545.408C904.031 585.388 923.848 675.845 1005.5 692.054C1089.18 708.455 1143.35 679.601 1168.65 651.201C1198.46 617.742 1227.74 536.938 1164.06 470.599C1134.02 439.303 1103.82 403.422 1076.26 365.724C1040.02 316.149 1034.81 247.685 1070.72 202.448C1097.83 168.298 1144.01 146.503 1170.83 107.509C1191.31 77.7225 1198.88 43.8102 1196.65 12.5713C1194.2 -21.6064 1181.1 -54.4202 1159.31 -83.6875" stroke="#E3E3E3" stroke-miterlimit="10"/>
<path d="M-23 739.971C-13.232 680.349 37.227 622.8 103.133 606.513C158.59 592.809 218.947 606.532 271.737 625.124C319.532 641.957 367.11 658.845 410.003 651.082C464.52 641.215 499.259 595.856 556.8 565.942C609.269 538.665 661.87 521.965 715.819 522.953C751.046 523.599 787.267 534.417 822.041 548.645C914.048 586.295 935.856 672.073 1015.41 688.028C1096.14 703.991 1149.92 677.606 1176.07 649.747C1206.47 617.358 1234.15 539.878 1175.93 475.035C1147.55 443.433 1118.96 407.162 1091.87 369.736C1057.01 321.573 1050.97 256.113 1083.66 211.58C1108.86 177.251 1152.81 154.217 1179.51 115.801C1200.29 85.9064 1209.4 52.4179 1209.01 21.0955C1208.57 -13.7107 1197.45 -47.7283 1176.83 -78.4019" stroke="#D2D2D2" stroke-miterlimit="10"/>
<path d="M-21 742.614C-9.18971 681.561 40.9687 621.965 108.418 604.51C164.143 590.089 225.34 603.472 278.106 623.213C325.272 640.857 371.341 659.508 414.083 654.292C468.338 647.673 505.808 606.109 563.253 576.629C616.628 549.236 668.501 529.243 723.303 528.093C759.698 527.33 797.55 537.341 833.578 551.679C922.61 587.111 946.441 668.226 1023.86 683.947C1101.62 699.488 1154.97 675.538 1181.96 648.195C1212.93 616.833 1239.08 542.492 1186.27 479.186C1159.59 447.202 1132.58 410.547 1105.98 373.349C1072.51 326.55 1065.62 263.976 1095.11 220.144C1118.37 185.569 1160.08 161.303 1186.66 123.423C1207.73 93.3879 1218.4 60.283 1219.82 28.8477C1221.43 -6.62728 1212.25 -41.8811 1192.82 -73.9971" stroke="#D0CDCD" stroke-miterlimit="10"/>
<path d="M-19 744.375C-5.13501 681.958 44.7853 620.392 113.854 601.773C169.911 586.661 232.021 599.669 284.819 620.546C331.417 638.971 376.023 659.373 418.662 656.716C472.715 653.347 512.966 615.635 570.379 586.612C624.727 559.139 675.921 535.835 731.645 532.582C769.247 530.385 808.764 539.625 846.1 554.035C932.227 587.278 958.141 663.578 1033.52 679.045C1108.39 694.148 1161.36 672.65 1189.25 645.863C1220.8 615.551 1245.56 544.325 1198.01 482.739C1173.01 450.359 1147.54 413.409 1121.4 376.479C1089.28 331.099 1081.48 271.431 1107.85 228.39C1129.17 193.575 1168.73 168.137 1195.21 130.832C1216.6 100.689 1228.86 68.0053 1232.07 36.488C1235.75 0.382269 1228.49 -36.0715 1210.21 -69.5928" stroke="#D5D5D5" stroke-miterlimit="10"/>
<path d="M-16 747.899C-0.0957666 684.048 49.5274 620.456 120.126 600.642C176.452 584.832 239.398 597.455 292.157 619.507C338.13 638.724 381.215 660.907 423.699 660.809C477.482 660.684 520.469 626.793 577.772 598.191C633.027 570.613 683.469 543.938 740.054 538.605C778.809 534.953 819.939 543.472 858.547 557.949C941.627 589.101 969.627 660.603 1042.87 675.833C1114.75 690.514 1167.27 671.44 1196.02 645.185C1228.12 615.882 1251.57 547.59 1209.23 487.773C1185.97 454.912 1162.04 417.681 1136.4 380.973C1105.66 336.968 1096.93 280.094 1120.18 237.842C1139.52 202.717 1176.89 176.114 1203.24 139.338C1224.94 109.059 1238.79 76.7607 1243.76 45.1246C1249.54 8.35457 1244.17 -29.3431 1227.08 -64.3076" stroke="#DEDEDE" stroke-miterlimit="10"/>
<path d="M-14 749.661C3.96213 684.446 53.3509 618.908 125.556 597.907C182.219 581.426 246.08 593.628 298.855 616.844C344.266 636.819 385.87 660.768 428.249 663.232C481.826 666.348 527.601 636.324 584.859 608.171C641.089 580.522 690.826 550.472 748.347 543.093C788.295 537.969 831.078 545.805 871.018 560.307C951.122 589.391 981.232 656.092 1052.46 670.937C1121.41 685.309 1173.55 668.539 1203.22 642.857C1235.88 614.584 1258.18 549.202 1220.88 491.327C1199.39 457.971 1176.91 420.551 1151.75 384.103C1122.35 341.526 1112.62 287.465 1132.85 246.086C1150.17 210.66 1185.46 182.951 1211.71 146.745C1233.72 116.363 1249.22 84.4913 1255.93 52.7632C1263.84 15.3771 1260.33 -23.534 1244.4 -59.9028" stroke="#CDCDCD" stroke-miterlimit="10"/>
<path d="M-11 752.304C8.99945 685.726 58.1033 618.258 131.826 596.059C188.764 578.914 253.469 590.679 306.191 615.066C350.993 635.79 391.065 661.508 433.29 666.536C486.6 672.885 535.113 646.738 592.256 619.025C649.402 591.312 698.356 557.861 756.76 548.46C797.846 541.846 842.231 549.048 883.467 563.544C960.483 590.615 992.722 652.335 1061.81 666.925C1127.79 680.859 1179.46 666.512 1210.01 641.41C1243.18 614.155 1264.47 551.591 1232.12 495.759C1212.47 461.856 1191.41 424.305 1166.75 388.112C1138.71 346.965 1127.95 295.679 1145.19 255.205C1160.43 219.45 1193.65 190.668 1219.75 155.028C1242.08 124.546 1259.2 93.1086 1267.63 61.279C1277.7 23.2877 1276.02 -16.8455 1261.26 -54.6172" stroke="#D2D2D2" stroke-miterlimit="10"/>
<path d="M-9 754.947C13.0432 686.932 61.8913 617.469 137.159 594.039C194.402 576.219 259.986 587.539 312.672 613.138C356.892 634.625 395.447 662.146 437.535 669.748C490.604 679.332 541.878 657.042 598.93 629.735C657.017 601.933 705.196 565.02 764.526 553.604C806.757 545.479 852.762 552.106 895.326 566.575C969.271 591.713 1003.67 648.463 1070.67 662.82C1133.69 676.327 1184.9 664.378 1216.36 639.843C1250.06 613.565 1270.5 553.673 1242.92 499.913C1225.2 465.376 1205.44 427.705 1181.29 391.726C1154.6 351.969 1142.72 303.371 1157.06 263.785C1170.16 227.639 1201.4 197.775 1227.37 162.661C1250.01 132.046 1268.79 101.019 1278.92 69.0418C1291.16 30.4191 1291.29 -10.9947 1277.71 -50.2124" stroke="#D8D8D8" stroke-miterlimit="10"/>
<path d="M-7 756.709C17.0997 687.332 65.7186 615.961 142.566 591.312C200.145 572.844 266.646 583.687 319.312 610.483C362.98 632.7 400.029 662.001 441.999 672.172C494.857 684.98 548.914 666.579 605.904 639.703C664.966 611.849 712.373 571.49 772.673 558.09C816.06 548.449 863.701 554.545 907.627 568.933C978.524 592.156 1015.12 643.825 1080.04 657.934C1140.15 670.998 1190.92 661.452 1223.31 637.521C1257.54 612.237 1277.32 555.025 1254.33 503.464C1238.64 468.286 1220.06 430.586 1196.41 394.856C1171.04 356.537 1157.98 310.661 1169.51 272.021C1180.4 235.509 1209.74 204.613 1235.58 170.062C1258.56 139.351 1279.01 108.778 1290.84 76.6747C1305.27 37.477 1307.2 -5.18795 1294.79 -45.8076" stroke="#DEDEDE" stroke-miterlimit="10"/>
<path d="M-4 760.232C22.1513 689.416 70.5336 616.069 148.936 590.164C206.84 571.034 274.247 581.397 326.87 609.428C369.982 632.392 405.51 663.512 447.35 676.264C499.984 692.308 556.815 677.786 613.722 651.307C673.747 623.376 720.353 579.509 781.623 564.12C826.144 552.937 875.408 558.569 920.703 572.846C988.52 594.223 1027.31 640.82 1090.15 654.7C1147.33 667.33 1197.64 660.168 1230.96 636.829C1265.7 612.499 1285.01 557.874 1266.43 508.502C1252.92 472.606 1235.38 434.877 1212.24 399.35C1188.19 362.432 1173.87 319.22 1182.66 281.488C1191.26 244.563 1218.78 212.609 1244.5 178.581C1267.8 147.743 1289.93 117.601 1303.43 85.3234C1320.09 45.5233 1323.79 1.54559 1312.55 -40.5225" stroke="#E3E3E3" stroke-miterlimit="10"/>
<path d="M-2 761.994C26.1975 689.817 74.3408 614.582 154.273 587.442C212.494 567.674 280.8 577.529 333.36 606.776C375.914 630.454 409.941 663.292 451.606 678.687C504.051 697.856 563.601 687.328 620.411 661.269C681.389 633.299 727.165 585.953 789.409 568.602C835.043 555.881 885.915 561.105 932.584 575.202C997.301 594.751 1038.32 636.071 1099.03 649.816C1153.29 661.903 1203.09 657.215 1237.34 634.507C1272.59 611.145 1291.62 559.174 1277.27 512.051C1266.11 475.456 1249.42 437.766 1226.81 402.478C1204.08 367.005 1188.44 326.514 1194.56 289.72C1200.77 252.428 1226.57 219.449 1252.14 185.978C1275.77 155.048 1299.58 125.381 1314.76 92.953C1333.64 52.6099 1339.1 7.35067 1329.03 -36.1182" stroke="#E9E9E9" stroke-miterlimit="10"/>
<path d="M1 763.756C31.2382 690.219 79.1372 613.108 160.584 584.724C219.116 564.324 288.317 573.657 340.79 604.128C382.787 628.516 415.268 663.164 456.782 681.11C508.987 703.512 571.287 696.867 627.989 671.225C689.914 643.222 734.834 592.385 798.052 573.083C844.781 558.816 897.245 563.705 945.298 577.56C1006.9 595.32 1050.11 631.449 1108.71 644.941C1160.02 656.59 1209.32 654.256 1244.51 632.193C1280.24 609.785 1299.2 560.512 1288.87 515.602C1280.29 478.307 1264.22 440.663 1242.16 405.608C1220.74 371.584 1203.71 333.832 1207.25 297.949C1210.96 260.31 1235.14 226.289 1260.56 193.373C1284.52 162.354 1310 133.173 1326.84 100.581C1347.95 59.7119 1355.16 13.1565 1346.27 -31.7134" stroke="#EEEEEE" stroke-miterlimit="10"/>
<path d="M3 767.279C35.2949 692.303 82.9867 613.238 165.985 583.568C224.866 562.519 295.008 571.325 347.415 603.065C388.887 628.182 419.831 664.685 461.22 685.204C513.215 710.864 578.359 708.202 634.928 682.842C697.898 654.892 741.91 600.384 806.157 579.117C853.995 563.281 908.075 567.92 957.557 581.473C1016.09 597.503 1061.51 628.441 1118.03 641.695C1166.41 652.921 1215.25 652.921 1251.39 631.493C1287.64 610.002 1306.71 563.47 1300.22 520.64C1294.46 482.635 1278.75 444.97 1257.23 410.103C1237.1 377.493 1218.61 342.482 1219.63 307.425C1220.75 269.433 1243.49 234.341 1268.71 201.9C1293.08 170.8 1320.19 142.043 1338.69 109.236C1362.05 67.8124 1371.01 19.8918 1363.29 -26.4277" stroke="#F4F4F4" stroke-miterlimit="10"/>
<path d="M5 769.041C39.3246 692.706 86.8178 611.892 171.243 580.852C230.457 559.256 301.455 567.438 353.74 600.421C394.659 626.234 424.032 664.555 465.258 687.627C517 716.52 584.849 717.698 641.318 692.795C705.189 664.771 748.328 606.803 813.561 583.599C862.459 566.205 918.095 570.684 968.983 583.831C1024.39 598.149 1071.98 623.822 1126.38 636.825C1171.79 647.614 1220.12 649.937 1257.18 629.182C1293.91 608.619 1313.26 565.037 1310.43 524.191C1307.76 485.593 1292.14 447.88 1271.2 413.232C1252.37 382.079 1232.38 349.901 1230.95 315.651C1229.37 277.401 1250.67 241.164 1275.76 209.292C1300.42 178.09 1329.22 149.856 1349.38 116.861C1374.97 74.9437 1385.67 25.6966 1379.12 -22.0229" stroke="#F9F9F9" stroke-miterlimit="10"/>
<path d="M8 771.684C44.374 693.905 91.6094 611.045 177.602 578.808C237.121 556.496 309.093 564.199 361.273 598.468C401.675 625.002 429.485 665.192 470.575 690.839C522.092 722.995 592.688 728.019 649.089 703.542C713.903 675.414 756.178 613.918 822.452 588.753C872.426 569.777 929.644 574.208 981.988 586.862C1034.33 599.516 1084.09 619.92 1136.4 632.684C1178.88 643.048 1226.71 647.68 1264.73 627.59C1301.95 607.92 1321.74 567.46 1322.43 528.347C1323.13 489.233 1307.28 451.317 1286.93 416.845C1269.38 387.115 1247.83 357.808 1244.01 324.253C1239.64 285.768 1259.59 248.279 1284.57 216.941C1309.55 185.603 1340.06 157.872 1361.87 124.64C1389.72 82.1969 1402.15 31.5526 1396.77 -17.6187" stroke="white" stroke-miterlimit="10"/>
<path d="M631.054 959.319C585.289 935.829 583.146 878.269 609.988 839.564C636.829 800.859 683.587 775.264 725.144 746.894C766.7 718.525 806.661 682.072 810.09 637.506C814.475 580.53 757.709 528.806 764.982 472.035C770.652 427.787 814.198 394.313 859.963 375.63C885.837 365.066 915.744 361.358 942.528 352.629C1064 313.047 1171.98 376.949 1247.66 324.967C1329.61 268.683 1325.43 205.698 1310.29 174.657C1290.89 134.898 1225.93 46.8405 1098.02 71.1002C1046.05 80.955 992.727 89.3357 939.526 86.5973C859.876 82.4982 782.406 30.4897 777.323 -35.6031C773.84 -80.9006 802.157 -128.014 782.448 -170.354C769.202 -198.812 735.66 -218.503 699.88 -225.503C664.1 -232.505 626.364 -228.295 591 -219.967" stroke="white" stroke-miterlimit="10"/>
<path d="M634.637 959.32C588.948 933.701 584.797 875.095 611.747 834.757C638.052 795.384 685.269 769.143 727.731 741.355C769.692 713.896 810.148 679.319 815.689 636.297C822.716 581.31 770.951 529.997 778.562 473.51C784.747 428.594 825.175 394.015 869.525 373.202C895.004 361.246 925.171 355.715 952.863 346.326C1070.26 306.526 1175.85 367.251 1250.03 316.467C1329.78 261.822 1327.53 200.437 1313.31 169.184C1295.28 129.58 1232.43 44.969 1108.75 66.0491C1057.77 74.7398 1004.85 81.7891 952.156 78.8674C874.538 74.6928 799.364 24.9788 792.571 -38.749C787.87 -82.84 813.589 -129.334 794.278 -171.292C781.123 -200.025 748.886 -220.301 714.155 -228.727C679.102 -237.231 641.519 -235.164 605.66 -228.403" stroke="#FBFBFB" stroke-miterlimit="10"/>
<path d="M637.86 958.439C592.224 930.707 586.076 871.094 613.135 829.134C638.933 789.128 686.602 762.235 730.001 735.05C772.374 708.507 813.358 675.835 821.014 634.381C830.691 581.411 783.75 530.522 791.859 474.365C798.438 428.793 835.895 393.084 878.844 370.209C903.946 356.839 934.377 349.526 962.991 339.473C1076.41 299.621 1179.61 356.99 1252.31 307.433C1329.91 254.457 1329.59 194.712 1316.28 163.256C1299.6 123.838 1238.78 42.6646 1119.36 60.5994C1069.3 68.1161 1016.79 73.8341 964.578 70.732C888.961 66.4842 816.021 19.0758 807.539 -42.236C801.608 -85.1112 824.748 -130.946 805.827 -172.5C792.758 -201.494 761.796 -222.364 728.115 -232.188C693.756 -242.21 656.326 -242.267 619.956 -237.079" stroke="#F6F6F6" stroke-miterlimit="10"/>
<path d="M642.05 958.439C596.536 928.589 588.413 867.972 615.528 824.374C640.8 783.737 688.821 756.176 733.104 729.594C775.813 703.956 817.276 673.19 827.037 633.295C839.347 582.333 797.396 531.87 805.895 476.026C812.93 429.798 847.285 392.894 888.772 368.007C913.466 353.194 944.108 344.138 973.606 333.405C1082.93 293.629 1183.52 347.52 1254.66 299.18C1329.98 247.865 1331.57 189.758 1319.21 158.086C1303.9 118.857 1245.16 41.0474 1130.21 55.8915C1081.13 62.2305 1029.16 66.5013 977.486 63.3409C903.997 58.8447 833.357 13.8941 823.229 -44.9961C816.061 -86.6768 836.485 -131.809 818.1 -173.002C805.053 -202.234 775.484 -223.754 742.914 -234.952C709.282 -246.515 672.079 -248.673 635.251 -245.056" stroke="#F2F2F2" stroke-miterlimit="10"/>
<path d="M645.321 958.439C599.871 926.468 589.776 864.844 616.966 819.595C641.761 778.332 690.167 750.081 735.401 724.102C778.486 699.358 820.495 670.5 832.371 632.159C847.331 583.198 810.324 533.153 819.215 477.613C826.722 430.722 858 392.566 898.091 365.716C922.407 349.431 953.3 338.669 983.718 327.245C1089.14 287.651 1187.21 337.959 1256.85 290.829C1330.01 241.166 1333.5 184.695 1322.08 152.797C1308.09 113.759 1251.33 39.2315 1140.76 51.0486C1092.56 56.2006 1041.08 59.1226 989.895 55.8161C918.43 51.1985 849.975 8.55552 838.224 -47.9091C829.795 -88.4172 847.633 -132.867 829.672 -173.676C816.691 -203.171 788.41 -225.349 756.916 -237.896C723.961 -251.026 686.946 -255.262 649.615 -253.215" stroke="#EEEEEE" stroke-miterlimit="10"/>
<path d="M648.552 958.439C603.233 924.34 591.198 861.707 618.408 814.787C642.703 772.898 691.397 743.937 737.523 718.566C780.91 694.702 823.501 667.78 837.385 630.962C855.086 584.023 822.97 534.356 832.23 479.109C840.202 431.547 868.336 392.085 906.988 363.311C930.879 345.524 961.987 333.093 993.28 320.961C1094.68 281.648 1190.04 328.276 1258.1 282.348C1328.96 234.328 1334.35 179.489 1323.89 147.353C1311.25 108.506 1256.48 37.1713 1150.53 46.0306C1103.24 49.9845 1052.36 51.5723 1001.74 48.1151C932.409 43.3804 866.198 3.0192 852.883 -51.0143C843.184 -90.3717 858.437 -134.133 840.922 -174.566C828.029 -204.33 801.075 -227.198 770.705 -241.071C738.47 -255.795 701.703 -262.084 663.924 -261.608" stroke="#E9E9E9" stroke-miterlimit="10"/>
<path d="M652.862 958.439C607.619 922.224 593.64 858.61 620.894 810.03C644.734 767.537 693.751 737.861 740.84 713.115C784.574 690.131 827.731 665.148 843.718 629.883C864.08 584.964 836.92 535.713 846.553 480.779C855.007 432.562 880.003 391.769 917.291 361.121C940.777 341.817 972.154 327.757 1004.35 314.909C1101.91 275.984 1194.64 318.821 1261.19 274.112C1329.87 227.753 1337.14 174.57 1327.64 142.2C1316.3 103.566 1263.42 35.3641 1162.01 41.3418C1115.54 44.0816 1065.23 44.3514 1015.11 40.7435C947.818 35.8986 883.726 -2.18434 868.872 -53.7553C857.868 -91.9608 870.585 -135.007 853.49 -175.047C840.672 -205.07 815.009 -228.644 785.72 -243.811C754.166 -260.151 717.6 -268.465 679.325 -269.561" stroke="#E5E5E5" stroke-miterlimit="10"/>
<path d="M656.19 957.558C611.026 919.228 595.121 854.641 622.4 804.397C645.796 761.306 695.108 730.903 743.161 706.79C787.227 684.679 830.954 661.643 849.043 627.929C872.061 585.031 849.875 536.197 859.869 481.576C868.811 432.705 890.629 390.548 926.577 358.061C949.638 337.219 981.301 321.565 1014.4 307.987C1108.14 269.535 1198.18 308.498 1263.22 265.008C1329.7 220.311 1338.85 168.789 1330.32 136.183C1320.27 97.7693 1267.87 21.8908 1172.44 35.7901C1127.42 42.3481 1077.07 36.2723 1027.46 32.5098C962.212 27.5613 900.196 -8.26012 883.856 -57.3579C871.521 -94.4226 881.732 -136.742 865.053 -176.387C852.313 -206.67 827.951 -230.976 799.741 -247.411C768.877 -265.392 732.51 -275.705 693.745 -278.37" stroke="#E1E1E1" stroke-miterlimit="10"/>
<path d="M659.534 958.439C614.456 917.965 596.639 852.365 623.925 800.416C646.886 756.702 696.465 725.533 745.485 702.046C789.868 680.782 834.163 659.688 854.358 627.503C880.024 586.595 862.83 538.145 873.178 483.797C882.613 434.24 901.213 390.658 935.845 356.336C958.459 333.924 990.429 316.699 1024.42 302.364C1114.37 264.434 1201.67 299.473 1265.19 257.17C1329.46 214.103 1340.48 164.213 1332.93 131.342C1324.16 93.1252 1273.8 19.2302 1182.82 31.343C1138.49 37.2462 1088.87 29.2997 1039.77 25.3772C976.585 20.3281 916.598 -13.2707 898.83 -59.9213C885.133 -95.8817 892.873 -137.496 876.609 -176.773C863.952 -207.337 840.902 -232.414 813.762 -250.106C783.605 -269.765 747.43 -282.06 708.178 -286.298" stroke="#DCDCDC" stroke-miterlimit="10"/>
<path d="M662.889 958.439C617.905 915.851 598.191 849.289 625.468 795.663C648.003 751.361 697.822 719.435 747.813 696.601C792.499 676.19 837.361 657.065 859.662 626.432C887.969 587.546 875.78 539.515 886.472 485.477C896.406 435.267 911.748 390.269 945.091 354.159C967.235 330.178 999.538 311.422 1034.41 296.324C1120.58 259.012 1205.11 290.031 1267.1 248.948C1329.14 207.543 1342.01 159.324 1335.46 126.206C1327.95 88.2196 1279.72 16.4632 1193.15 26.6733C1149.41 31.8312 1100.63 22.11 1052.05 18.0252C990.927 12.8856 932.919 -18.4749 913.784 -62.6415C898.69 -97.4792 903.999 -138.352 888.147 -177.231C875.577 -208.057 853.856 -233.906 827.775 -252.823C798.343 -274.169 762.349 -288.417 722.617 -294.227" stroke="#D8D8D8" stroke-miterlimit="10"/>
<path d="M667.258 957.558C622.37 912.855 600.779 845.335 628.029 790.03C650.145 745.144 700.18 712.447 751.142 690.275C796.117 670.707 841.545 653.557 865.951 624.476C896.891 587.609 889.719 539.998 900.744 486.271C911.181 435.411 923.224 388.978 955.308 351.097C976.958 325.535 1009.62 305.282 1045.35 289.402C1127.78 252.769 1209.48 279.708 1269.93 239.843C1329.75 200.098 1344.46 153.552 1338.92 120.188C1332.66 82.4333 1286.62 12.9307 1204.42 21.12C1161.2 25.4259 1113.34 14.0414 1065.28 9.79024C1006.24 4.56662 950.149 -24.5602 929.713 -66.2461C913.183 -99.9656 916.107 -140.095 900.665 -178.574C888.19 -209.663 867.812 -236.301 842.775 -256.424C814.092 -279.477 778.265 -295.656 738.057 -303.036" stroke="#D4D4D4" stroke-miterlimit="10"/>
<path d="M670.707 957.558C625.863 910.741 602.377 842.269 629.621 785.28C651.357 739.814 701.652 706.331 753.656 684.832C798.971 666.098 845.023 650.932 871.571 623.403C905.179 588.553 903.03 541.366 914.397 487.948C925.358 436.439 934.078 388.558 964.972 348.918C986.131 321.768 1019.23 300.046 1055.86 283.363C1134.68 247.464 1213.61 270.269 1272.6 231.622C1330.27 193.539 1346.81 148.668 1342.3 115.051C1337.26 77.5317 1293.33 23.2959 1215.44 16.4489C1172.65 12.6872 1125.69 6.85958 1078.1 2.43833C1021.05 -2.86273 966.756 -29.7565 945.06 -68.9689C927.025 -101.567 927.617 -140.958 912.562 -179.036C900.167 -210.389 881.125 -237.827 857.083 -259.144C829.139 -283.918 793.409 -302.015 752.677 -310.964" stroke="#CFCFCF" stroke-miterlimit="10"/>
<path d="M674.095 956.677C629.36 907.746 604.028 838.325 631.212 779.65C652.544 733.604 703.007 699.325 755.981 678.51C801.562 660.599 848.172 647.422 876.825 621.448C913.047 588.611 915.938 541.852 927.624 488.74C939.098 436.583 944.445 387.247 974.128 345.857C994.744 317.111 1028.26 293.951 1065.72 276.443C1140.84 241.327 1216.95 260.047 1274.3 222.521C1329.81 186.192 1348.06 142.902 1344.59 109.034C1340.77 71.7507 1298.61 19.9191 1225.58 10.8967C1183.48 5.69672 1137.29 -1.19748 1090.24 -5.79535C1035.28 -11.1661 982.786 -35.821 959.932 -72.5753C940.368 -104.042 938.68 -142.706 924.032 -180.383C911.74 -212 894.081 -240.25 871.049 -262.747C843.909 -289.256 808.307 -309.255 767.111 -319.773" stroke="#CBCBCB" stroke-miterlimit="10"/>
<path d="M677.489 957.558C632.87 906.479 605.71 836.065 632.817 775.657C653.752 729.005 704.362 693.888 758.303 673.755C804.141 656.647 851.302 645.459 882.057 621.025C920.883 590.177 928.818 543.816 940.811 490.976C952.806 438.134 954.747 387.304 983.246 344.138C1003.29 313.772 1037.27 289.187 1075.52 270.817C1146.98 236.506 1220.13 251.01 1275.92 214.676C1329.18 179.981 1349.22 138.338 1346.81 104.196C1344.18 67.1245 1303.82 17.5126 1235.64 6.45494C1194.24 -0.259173 1148.83 -8.14683 1102.33 -12.9298C1049.46 -18.3673 998.7 -40.7825 974.762 -75.1263C953.616 -105.466 949.714 -143.446 935.469 -180.747C923.284 -212.652 907.026 -241.738 884.987 -265.427C858.681 -293.699 823.185 -315.605 781.53 -327.702" stroke="#DEDEDE" stroke-miterlimit="10"/>
<path d="M680.966 957.558C636.408 904.365 607.398 833.007 634.45 770.908C655.023 723.681 705.83 687.739 760.81 668.313C806.957 652.01 854.732 642.826 887.628 619.952C929.104 591.111 942.099 545.187 954.412 492.651C966.947 439.163 965.454 386.868 992.831 341.958C1012.32 309.991 1046.83 284.027 1085.91 264.778C1153.82 231.336 1224.08 241.571 1278.37 206.455C1329.45 173.418 1351.29 133.452 1349.94 99.0581C1348.5 62.221 1309.91 14.715 1246.49 1.78148C1205.75 -6.52623 1161.04 -15.3124 1115.03 -20.2838C1064.18 -25.7766 1015.03 -45.9122 990.047 -77.8523C967.233 -107.017 961.173 -144.315 947.309 -181.212C935.222 -213.382 920.36 -243.291 899.264 -268.149C873.784 -298.173 838.324 -321.965 796.16 -335.63" stroke="#D5D5D5" stroke-miterlimit="10"/>
<path d="M684.452 956.677C639.958 901.372 609.115 829.073 636.094 765.279C656.309 717.48 707.294 680.697 763.313 661.99C809.761 646.482 858.145 639.308 893.181 617.997C937.304 591.159 955.372 545.674 967.994 493.443C981.076 439.311 976.115 385.553 1002.39 338.896C1021.29 305.326 1056.38 278.017 1096.26 257.858C1160.64 225.321 1227.95 231.249 1280.76 197.354C1329.64 165.972 1353.26 127.684 1353 93.0411C1352.72 56.4373 1315.98 10.887 1257.28 -3.77067C1217.23 -13.7706 1173.2 -23.3494 1127.69 -28.5156C1078.87 -34.0572 1031.28 -51.88 1005.31 -81.4574C980.774 -109.407 972.619 -146.066 959.135 -182.559C947.149 -214.997 933.702 -245.725 913.536 -271.753C888.911 -303.532 853.467 -329.205 810.797 -344.439" stroke="#CECECE" stroke-miterlimit="10"/>
<path d="M687.862 956.677C643.501 899.259 610.88 826.022 637.736 760.53C657.572 712.16 708.649 674.522 765.624 656.549C812.301 641.825 861.224 636.667 898.347 616.923C945.05 592.083 968.166 547.045 981.076 495.115C994.692 440.34 986.242 385.119 1011.39 336.715C1029.67 301.544 1065.33 272.926 1105.93 251.819C1166.71 220.219 1230.95 221.807 1282.18 189.135C1328.8 159.405 1354.14 122.795 1354.98 87.9046C1355.86 51.5326 1321.11 7.79487 1267.13 -8.44319C1227.89 -20.2483 1184.56 -30.4971 1139.61 -35.8672C1092.89 -41.4485 1046.88 -56.9175 1020.02 -84.1838C993.733 -110.868 983.558 -146.938 970.469 -183.026C958.609 -215.732 946.609 -247.28 927.383 -274.476C903.674 -308.012 868.277 -335.563 825.164 -352.367" stroke="#E0E0E0" stroke-miterlimit="10"/>
<path d="M691.359 956.677C647.072 897.146 612.648 822.975 639.403 755.783C658.891 706.843 710.116 668.34 768.123 651.111C815.087 637.162 864.573 633.964 903.871 615.849C953.158 592.926 981.407 548.415 994.613 496.787C1008.79 441.37 996.816 384.69 1020.9 334.534C1038.55 297.762 1074.89 267.875 1116.2 245.782C1173.5 215.146 1234.65 212.285 1284.45 180.917C1328.8 152.767 1355.95 117.901 1357.91 82.7672C1359.93 46.6204 1327.25 4.57254 1277.81 -13.1164C1239.43 -26.8539 1196.63 -37.6356 1152.19 -43.2187C1107.51 -48.8318 1062.97 -61.8968 1035.23 -86.9113C1007.11 -112.265 994.963 -147.813 982.249 -183.496C970.501 -216.469 959.947 -248.834 941.619 -277.202C918.817 -312.491 883.396 -341.924 839.786 -360.295" stroke="#E5E5E5" stroke-miterlimit="10"/>
<path d="M695.862 956.677C651.655 894.993 615.44 819.838 642.079 750.9C661.224 701.357 712.584 661.947 771.618 645.465C818.865 632.274 868.963 631.115 910.378 614.546C962.316 593.615 995.632 549.515 1009.13 498.152C1023.87 442.058 1008.35 383.883 1031.37 331.938C1048.39 293.542 1085.45 262.411 1127.45 239.269C1181.29 209.6 1239.37 202.35 1287.67 172.18C1329.81 145.669 1358.69 112.442 1361.78 77.047C1364.92 41.0987 1334.48 0.610176 1289.44 -18.4364C1252.05 -34.2532 1209.65 -45.428 1165.73 -51.2383C1123.1 -56.8792 1080.01 -67.4906 1051.41 -90.3343C1021.42 -114.297 1007.35 -149.425 995.006 -184.725C983.376 -217.991 974.279 -251.189 956.836 -280.75C934.964 -317.815 899.503 -349.152 855.402 -369.104" stroke="#E3E3E3" stroke-miterlimit="10"/>
<path d="M699.368 956.677C655.245 892.882 617.256 816.793 643.766 746.153C662.573 696.04 714.054 655.737 774.11 640.026C821.634 627.593 872.339 628.482 915.866 613.472C970.449 594.548 1008.95 550.911 1022.62 499.825C1038.06 443.118 1018.84 383.466 1040.82 329.758C1057.19 289.767 1095.03 257.463 1137.65 233.231C1188.06 204.571 1243.05 192.915 1289.82 163.963C1329.75 139.112 1360.33 107.54 1364.57 71.9109C1368.83 36.1775 1340.84 -2.79045 1300.01 -23.1082C1263.79 -41.1366 1221.63 -52.5419 1178.23 -58.59C1137.64 -64.2457 1096.01 -72.3303 1066.57 -93.0613C1034.66 -115.528 1018.79 -150.318 1006.74 -185.194C995.308 -218.747 987.604 -252.735 971.035 -283.475C950.115 -322.289 914.599 -355.512 870.011 -377.033" stroke="#DEDDDD" stroke-miterlimit="10"/>
<path d="M702.832 955.796C658.797 889.888 619.167 812.9 645.412 740.526C663.97 689.867 715.478 648.634 776.552 633.706C824.353 622.022 875.659 624.969 921.297 611.517C978.52 594.598 1022.04 551.394 1036.04 500.615C1052 443.262 1029.25 382.172 1050.2 326.695C1065.91 285.112 1104.61 251.695 1147.78 226.313C1194.79 198.674 1246.65 182.601 1291.89 154.865C1329.61 131.672 1361.88 101.751 1367.29 65.8943C1372.64 30.3704 1347.35 -7.10234 1310.51 -28.6623C1275.69 -49.0359 1233.52 -60.5244 1190.66 -66.822C1152.11 -72.4848 1111.96 -77.9768 1081.66 -96.6701C1047.82 -117.547 1030.05 -152.068 1018.41 -186.546C1007.07 -220.362 1000.88 -255.157 985.174 -287.082C965.224 -327.639 929.638 -362.752 884.565 -385.842" stroke="#C6C5C5" stroke-miterlimit="10"/>
<path d="M706.384 955.796C662.448 887.776 620.958 809.827 647.164 735.781C665.302 684.529 716.987 642.401 779.063 628.268C827.126 617.326 879.018 622.337 926.753 610.442C986.601 595.529 1035.12 552.756 1049.45 502.284C1065.92 444.283 1039.65 381.764 1059.57 324.514C1074.59 281.344 1114.23 246.882 1157.87 220.277C1201.51 193.671 1250.17 173.169 1293.89 146.648C1329.38 125.113 1363.31 96.8334 1369.89 60.7577C1376.33 25.4353 1354.02 -10.5087 1320.9 -33.3353C1287.79 -56.1619 1245.34 -67.6097 1203.02 -74.1724C1166.53 -79.8318 1127.89 -82.668 1096.72 -99.3985C1060.97 -118.587 1041.31 -152.937 1030.07 -187.017C1018.84 -221.098 1014.16 -256.694 999.314 -289.809C980.353 -332.104 944.695 -369.114 899.151 -393.771" stroke="#CBC8C8" stroke-miterlimit="10"/>
</g>
</svg>
