<svg width="20" height="20" viewBox="0 0 20 20" fill="none" xmlns="http://www.w3.org/2000/svg">
<path d="M9.5 2C7.7873 1.99991 6.14377 2.70699 4.92663 3.96757C3.7095 5.22814 3.01713 6.94032 3 8.73198C3 13.39 8.72813 18.5749 8.97188 18.7959C9.11905 18.9276 9.30634 19 9.5 19C9.69366 19 9.88095 18.9276 10.0281 18.7959C10.3125 18.5749 16 13.39 16 8.73198C15.9829 6.94032 15.2905 5.22814 14.0734 3.96757C12.8562 2.70699 11.2127 1.99991 9.5 2ZM9.5 17.0025C8.14313 15.651 4.625 11.9025 4.625 8.73198C4.625 7.37938 5.13861 6.08218 6.05285 5.12575C6.96709 4.16931 8.20707 3.63199 9.5 3.63199C10.7929 3.63199 12.0329 4.16931 12.9471 5.12575C13.8614 6.08218 14.375 7.37938 14.375 8.73198C14.375 11.877 10.8569 15.651 9.5 17.0025Z" fill="#5D7DDA"/>
<path d="M9.5 5.20312C8.90666 5.20312 8.32664 5.37907 7.83329 5.70872C7.33994 6.03836 6.95543 6.5069 6.72836 7.05507C6.5013 7.60325 6.44189 8.20645 6.55765 8.7884C6.6734 9.37034 6.95912 9.90489 7.37868 10.3244C7.79824 10.744 8.33279 11.0297 8.91473 11.1455C9.49667 11.2612 10.0999 11.2018 10.6481 10.9748C11.1962 10.7477 11.6648 10.3632 11.9944 9.86983C12.3241 9.37649 12.5 8.79647 12.5 8.20312C12.5 7.40747 12.1839 6.64441 11.6213 6.0818C11.0587 5.5192 10.2957 5.20313 9.5 5.20312ZM9.5 9.48884C9.24571 9.48884 8.99713 9.41343 8.7857 9.27216C8.57426 9.13088 8.40947 8.93008 8.31216 8.69515C8.21484 8.46021 8.18938 8.2017 8.23899 7.95229C8.2886 7.70289 8.41105 7.4738 8.59086 7.29399C8.77067 7.11418 8.99977 6.99172 9.24917 6.94211C9.49857 6.89251 9.75709 6.91797 9.99202 7.01528C10.227 7.11259 10.4278 7.27739 10.569 7.48882C10.7103 7.70025 10.7857 7.94883 10.7857 8.20312C10.7857 8.54412 10.6503 8.87114 10.4091 9.11226C10.168 9.35338 9.84099 9.48884 9.5 9.48884Z" fill="#5D7DDA"/>
</svg>
