<svg width="15" height="16" viewBox="0 0 15 16" fill="none" xmlns="http://www.w3.org/2000/svg">
<path id="Star 1" d="M6.58019 1.51494C6.87955 0.59363 8.18295 0.59363 8.48231 1.51494L9.55188 4.80674C9.68575 5.21876 10.0697 5.49772 10.5029 5.49772H13.9641C14.9329 5.49772 15.3356 6.73734 14.5519 7.30674L11.7517 9.34118C11.4013 9.59582 11.2546 10.0472 11.3885 10.4592L12.458 13.751C12.7574 14.6723 11.7029 15.4384 10.9192 14.869L8.11903 12.8346C7.76855 12.58 7.29395 12.58 6.94346 12.8346L4.14329 14.869C3.35958 15.4384 2.3051 14.6723 2.60445 13.751L3.67402 10.4592C3.8079 10.0472 3.66124 9.59582 3.31075 9.34118L0.510583 7.30674C-0.273131 6.73734 0.129645 5.49772 1.09837 5.49772H4.55957C4.99279 5.49772 5.37675 5.21876 5.51062 4.80674L6.58019 1.51494Z" fill="#FFC24D"/>
</svg>
